<svg width="254" height="132" viewBox="0 0 254 132" fill="none" xmlns="http://www.w3.org/2000/svg">
<path d="M68.0772 69.5256C68.0287 69.3932 66.6957 58.4056 66.6957 58.4056C66.576 57.682 64.6702 55.0296 64.4049 54.5676L53.5013 36.8958C52.618 35.639 51.1199 36.0946 50.4728 36.6244C49.9325 37.0379 49.4601 37.7293 50.3272 39.3769C51.7832 42.1489 57.4842 52.9393 57.4842 52.9393L55.7144 56.3348L52.7927 58.9872C52.9836 59.3231 48.6124 58.4993 48.6124 58.4993C48.4798 58.3313 50.9776 71.0117 57.4421 74.7529C57.4421 74.7529 65.2591 87.724 65.0294 87.8274L73.1635 78.8397L68.0772 69.5289V69.5256Z" fill="#B34B36" stroke="#00112C" stroke-linecap="round" stroke-linejoin="round"/>
<path d="M51.534 55.2108C51.534 55.2108 47.6805 54.975 48.6155 58.4932C49.5506 62.0146 53.6079 68.3984 55.4069 66.838C57.2058 65.2776 53.2844 59.5238 53.2844 59.5238" fill="#B34B36"/>
<path d="M51.534 55.2108C51.534 55.2108 47.6805 54.975 48.6155 58.4932C49.5506 62.0146 53.6079 68.3984 55.4069 66.838C57.2058 65.2776 53.2844 59.5238 53.2844 59.5238" stroke="#00112C" stroke-linecap="round" stroke-linejoin="round"/>
<path d="M53.6048 52.245C53.6048 52.245 49.7513 52.0092 50.6863 55.5274C51.6214 59.0488 55.6787 65.4326 57.4777 63.8722C59.2766 62.3118 55.3552 56.558 55.3552 56.558" fill="#B34B36"/>
<path d="M53.6048 52.245C53.6048 52.245 49.7513 52.0092 50.6863 55.5274C51.6214 59.0488 55.6787 65.4326 57.4777 63.8722C59.2766 62.3118 55.3552 56.558 55.3552 56.558" stroke="#00112C" stroke-linecap="round" stroke-linejoin="round"/>
<path d="M56.1903 50.5459C56.1903 50.5459 51.8191 49.0404 52.7542 52.5619C53.6893 56.0833 57.7466 62.4671 59.5455 60.9067C61.3445 59.3463 56.1903 50.5459 56.1903 50.5459Z" fill="#B34B36" stroke="#00112C" stroke-linecap="round" stroke-linejoin="round"/>
<path d="M66.6955 58.4029C66.6955 58.4029 65.5081 49.147 63.7253 48.0615C61.9425 46.9759 57.8852 43.3641 56.8142 44.091C55.7433 44.8146 56.1186 46.4849 56.8369 47.4024C57.5552 48.3199 61.2469 51.8381 61.2469 51.8381C61.2469 51.8381 56.3677 59.3365 58.872 64.8481" fill="#B34B36"/>
<path d="M66.6955 58.4029C66.6955 58.4029 65.5081 49.147 63.7253 48.0615C61.9425 46.9759 57.8852 43.3641 56.8142 44.091C55.7433 44.8146 56.1186 46.4849 56.8369 47.4024C57.5552 48.3199 61.2469 51.8381 61.2469 51.8381C61.2469 51.8381 56.3677 59.3365 58.872 64.8481" stroke="#00112C" stroke-linecap="round" stroke-linejoin="round"/>
<path d="M118.833 23.1365C116.105 20.3161 116.157 17.247 116.856 14.7691C116.862 14.7432 116.869 14.7206 116.879 14.6948C117.869 11.3155 121.479 9.48044 124.89 10.3721C127.465 11.0473 130.222 11.1572 132.907 11.1442C136.748 11.1281 140.66 10.9116 144.364 11.9261C148.069 12.9373 150.829 14.5397 151.867 18.2291C163.078 23.0557 156.41 33.3325 156.41 33.3325L150.822 42.3364L127.381 38.8182C121.855 38.1236 117.882 33.171 118.406 27.6368L118.833 23.1365Z" fill="#0ABF53" stroke="#00112C" stroke-linecap="round" stroke-linejoin="round"/>
<path d="M123.178 23.6825C121.062 22.3709 120.467 19.2629 121.677 17.0887C122.887 14.9145 125.56 13.774 128.035 14.0389C129.484 14.194 130.853 14.7658 132.257 15.1568C133.661 15.5477 135.205 15.7512 136.551 15.1858C137.893 14.6205 138.903 13.0633 138.424 11.687" stroke="#85DFA9" stroke-linecap="round" stroke-linejoin="round"/>
<path d="M150.725 40.7211C150.783 39.2382 152.158 37.9847 153.64 37.8813C155.122 37.778 156.574 38.7116 157.273 40.0201C157.972 41.3285 157.975 42.9438 157.474 44.3395C157.115 45.3377 156.487 46.265 155.594 46.84C154.384 47.6154 152.792 47.6541 151.449 47.1405C150.107 46.6268 149.003 45.6091 148.172 44.4396" fill="#B34B36"/>
<path d="M150.725 40.7211C150.783 39.2382 152.158 37.9847 153.64 37.8813C155.122 37.778 156.574 38.7116 157.273 40.0201C157.972 41.3285 157.975 42.9438 157.474 44.3395C157.115 45.3377 156.487 46.265 155.594 46.84C154.384 47.6154 152.792 47.6541 151.449 47.1405C150.107 46.6268 149.003 45.6091 148.172 44.4396" stroke="#00112C" stroke-linecap="round" stroke-linejoin="round"/>
<path d="M120.641 36.9443C120.951 35.4937 119.932 33.9365 118.521 33.4713C117.111 33.0061 115.474 33.5489 114.471 34.6441C113.468 35.7393 113.066 37.3029 113.205 38.7793C113.306 39.8358 113.684 40.889 114.406 41.6643C115.386 42.7143 116.92 43.1472 118.347 42.9792C119.774 42.8112 121.097 42.1005 122.194 41.1733" fill="#B34B36"/>
<path d="M120.641 36.9443C120.951 35.4937 119.932 33.9365 118.521 33.4713C117.111 33.0061 115.474 33.5489 114.471 34.6441C113.468 35.7393 113.066 37.3029 113.205 38.7793C113.306 39.8358 113.684 40.889 114.406 41.6643C115.386 42.7143 116.92 43.1472 118.347 42.9792C119.774 42.8112 121.097 42.1005 122.194 41.1733" stroke="#00112C" stroke-linecap="round" stroke-linejoin="round"/>
<path d="M153.317 64.6669H152.567C148.937 64.6669 145.995 61.727 145.995 58.1054V49.3535H125.097V58.1054C125.097 61.7302 122.153 64.6669 118.526 64.6669H117.775L135.516 80.7977L153.324 64.6669H153.317Z" fill="#B34B36" stroke="#00112C" stroke-linecap="round" stroke-linejoin="round"/>
<path d="M118.293 43.2381L122.273 52.6361C122.668 53.5666 121.982 54.5971 120.972 54.5971H113.013C112 54.5971 111.317 53.5666 111.712 52.6361L115.692 43.2381C116.177 42.088 117.808 42.088 118.296 43.2381H118.293Z" fill="#85DFA9" stroke="#00112C" stroke-linecap="round" stroke-linejoin="round"/>
<path d="M155.138 47.7447L159.535 56.9553C159.972 57.8664 159.334 58.926 158.322 58.9713L150.372 59.3266C149.362 59.3719 148.631 58.3736 148.984 57.427L152.537 47.861C152.97 46.6914 154.601 46.6171 155.138 47.7447Z" fill="#85DFA9" stroke="#00112C" stroke-linecap="round" stroke-linejoin="round"/>
<path d="M125.543 56.5576L125.096 56.1828V53.0781H145.926V56.1828L145.574 56.48C143.063 58.609 139.918 59.8658 136.628 60.0079C135.741 60.0467 134.851 60.0402 133.968 59.9853C130.868 59.7947 127.924 58.5477 125.543 56.5543V56.5576Z" fill="#00112C" stroke="#00112C" stroke-linecap="round" stroke-linejoin="round"/>
<path d="M147.713 22.2967C141.423 25.2624 134.202 26.2381 127.355 24.9911C126.158 24.7746 124.919 24.4354 123.777 23.9379C121.457 26.923 119.833 30.7158 119.296 34.9674C117.921 45.9 124.24 55.6954 133.416 56.8456C142.588 57.9957 151.143 50.0676 152.518 39.135C153.346 32.567 151.392 26.4126 147.71 22.2935L147.713 22.2967Z" fill="#B34B36" stroke="#00112C" stroke-linecap="round" stroke-linejoin="round"/>
<path d="M119.625 20.3711C120.754 22.2158 122.595 23.5275 124.653 24.2802" stroke="#00112C" stroke-linecap="round" stroke-linejoin="round"/>
<path d="M132.249 35.6243C132.444 34.0771 131.084 32.6321 129.212 32.397C127.34 32.1618 125.664 33.2254 125.469 34.7727C125.274 36.3199 126.634 37.7649 128.506 38C130.378 38.2352 132.054 37.1716 132.249 35.6243Z" fill="white"/>
<path d="M130.497 41.3389C130.497 41.3389 128.646 44.9152 133.943 45.5775C139.239 46.243 138.084 42.2887 138.084 42.2887" stroke="#00112C" stroke-linecap="round" stroke-linejoin="round"/>
<path d="M125.459 34.7669C125.459 34.7669 125.812 31.9659 129.199 32.3923C132.587 32.8188 132.234 35.6198 132.234 35.6198" stroke="#00112C" stroke-linecap="round" stroke-linejoin="round"/>
<path d="M127.726 36.9931C128.968 36.9931 129.975 35.9878 129.975 34.7478C129.975 33.5077 128.968 32.5024 127.726 32.5024C126.484 32.5024 125.478 33.5077 125.478 34.7478C125.478 35.9878 126.484 36.9931 127.726 36.9931Z" fill="#00112C" stroke="#00112C" stroke-linecap="round" stroke-linejoin="round"/>
<path d="M123.944 33.5752C123.944 33.5752 125.048 34.9256 126.161 34.7609L123.944 33.5752Z" fill="#00112C"/>
<path d="M123.944 33.5752C123.944 33.5752 125.048 34.9256 126.161 34.7609" stroke="#00112C" stroke-linecap="round" stroke-linejoin="round"/>
<path d="M146.765 36.4375C146.765 36.4375 145.361 37.4713 144.325 37.0384L146.765 36.4375Z" fill="#00112C"/>
<path d="M146.765 36.4375C146.765 36.4375 145.361 37.4713 144.325 37.0384" stroke="#00112C" stroke-linecap="round" stroke-linejoin="round"/>
<path d="M144.949 37.2181C145.144 35.6708 143.785 34.2259 141.912 33.9907C140.04 33.7555 138.364 34.8192 138.169 36.3664C137.974 37.9137 139.334 39.3586 141.206 39.5938C143.079 39.829 144.754 38.7653 144.949 37.2181Z" fill="white"/>
<path d="M138.158 36.3631C138.158 36.3631 138.511 33.5621 141.898 33.9885C145.286 34.415 144.933 37.216 144.933 37.216" stroke="#00112C" stroke-linecap="round" stroke-linejoin="round"/>
<path d="M133.784 46.9853C130.581 46.5847 129.06 48.1031 129.06 48.1031C129.06 48.1031 128.801 51.6859 133.263 52.2448C137.725 52.8037 138.013 49.3437 138.013 49.3437C138.013 49.3437 137.223 47.415 133.787 46.982L133.784 46.9853Z" fill="#89382B"/>
<path d="M128.361 47.7129C131.526 49.6093 135.334 50.123 138.89 49.1344L139.136 49.0665" stroke="#00112C" stroke-linecap="round" stroke-linejoin="round"/>
<path d="M125.485 29.0653C126.695 28.4838 128.089 28.2996 129.41 28.5419C130.73 28.7842 131.966 29.453 132.891 30.4254" stroke="#00112C" stroke-linecap="round" stroke-linejoin="round"/>
<path d="M145.984 30.8031C145.114 29.7854 143.913 29.052 142.606 28.7419C141.302 28.4318 139.898 28.5448 138.662 29.0585" stroke="#00112C" stroke-linecap="round" stroke-linejoin="round"/>
<path d="M140.583 38.6054C141.825 38.6054 142.831 37.6001 142.831 36.3601C142.831 35.12 141.825 34.1147 140.583 34.1147C139.341 34.1147 138.334 35.12 138.334 36.3601C138.334 37.6001 139.341 38.6054 140.583 38.6054Z" fill="#00112C" stroke="#00112C" stroke-linecap="round" stroke-linejoin="round"/>
<path d="M154.285 23.02C154.285 23.02 156.686 25.33 155.223 30.8027" stroke="#85DFA9" stroke-linecap="round" stroke-linejoin="round"/>
<path d="M124.708 64.8447C123.245 64.1016 121.679 63.6009 120.055 63.3586C115.723 62.7124 107.294 66.8121 100.011 70.9603C89.8645 76.74 80.3262 90.0019 80.3262 90.0019L69.607 69.8328C69.2187 69.1059 68.2222 68.9929 67.6851 69.6164C64.3784 73.4447 54.9081 84.5744 55.1475 86.2447C55.4355 88.2671 67.3033 128.437 81.1966 120.348C95.0899 112.258 106.087 102.718 106.087 102.718L107.951 131.494H138.119C138.119 131.494 138.216 78.9821 138.216 77.538C138.216 76.4137 128.843 66.9414 124.704 64.8414L124.708 64.8447Z" fill="#00112C" stroke="#00112C" stroke-linecap="round" stroke-linejoin="round"/>
<path d="M152.566 64.6665L138.217 77.5408L138.12 131.496H169.899V104.359L185.84 131.496H211.297C211.297 131.496 193.473 89.0323 179.767 74.2487C172.503 66.4111 152.566 64.6665 152.566 64.6665Z" fill="#00112C" stroke="#00112C" stroke-linecap="round" stroke-linejoin="round"/>
<path d="M15.9987 1H13.3003V49.1274H15.9987V1Z" fill="#00112C" stroke="#00112C" stroke-linecap="round" stroke-linejoin="round"/>
<path d="M13 24.6216L1 24.6216" stroke="#00112C" stroke-linecap="round" stroke-linejoin="round"/>
<path opacity="0.75" d="M80.2651 1.22607H16.0015V49.3535H80.2651V1.22607Z" fill="white" stroke="#00112C" stroke-linecap="round" stroke-linejoin="round"/>
<path d="M80.2651 1H16.0015V49.1274H80.2651V1Z" stroke="#00112C" stroke-linecap="round" stroke-linejoin="round"/>
<path d="M29.8433 25.0622C29.8433 23.8378 30.8398 22.8428 32.0661 22.8428C33.2923 22.8428 34.2889 23.8378 34.2889 25.0622C34.2889 26.2867 33.2923 27.2817 32.0661 27.2817C30.8398 27.2817 29.8433 26.2867 29.8433 25.0622Z" fill="#F7F8F9" stroke="#00112C" stroke-linecap="round" stroke-linejoin="round"/>
<path d="M64.1984 27.2817C65.426 27.2817 66.4212 26.288 66.4212 25.0622C66.4212 23.8365 65.426 22.8428 64.1984 22.8428C62.9708 22.8428 61.9756 23.8365 61.9756 25.0622C61.9756 26.288 62.9708 27.2817 64.1984 27.2817Z" fill="#F7F8F9" stroke="#00112C" stroke-linecap="round" stroke-linejoin="round"/>
<path d="M48.1344 27.2817C49.362 27.2817 50.3572 26.288 50.3572 25.0622C50.3572 23.8365 49.362 22.8428 48.1344 22.8428C46.9068 22.8428 45.9116 23.8365 45.9116 25.0622C45.9116 26.288 46.9068 27.2817 48.1344 27.2817Z" fill="#F7F8F9" stroke="#00112C" stroke-linecap="round" stroke-linejoin="round"/>
<path opacity="0.75" d="M226.125 106.581V46.6392H181.1V106.581H226.125Z" fill="white" stroke="#00112C" stroke-linecap="round" stroke-linejoin="round"/>
<path d="M180.99 46.6392H178.469V106.581H180.99V46.6392Z" fill="#00112C" stroke="#00112C" stroke-linecap="round" stroke-linejoin="round"/>
<path d="M253 76.6216H226" stroke="#00112C" stroke-linecap="round" stroke-linejoin="round"/>
<path d="M225.866 46.6392H212.345V60.1402H225.866V46.6392Z" fill="#00112C" stroke="#00112C" stroke-linecap="round" stroke-linejoin="round"/>
<path d="M244.779 27.5757H214.763V57.5467H244.779V27.5757Z" fill="#0ABF53" stroke="#00112C" stroke-linecap="round" stroke-linejoin="round"/>
<path d="M225.499 43.4868L228.443 46.4235L236.176 38.7021" stroke="white" stroke-linecap="round" stroke-linejoin="round"/>
<path d="M220.919 116.949L216.163 96.2178L234.832 106.113L220.919 116.949Z" fill="#00112C" stroke="#00112C" stroke-linecap="round" stroke-linejoin="round"/>
</svg>
