<svg xmlns="http://www.w3.org/2000/svg" width="300" height="200" viewBox="0 0 300 200" fill="none">
    <g clip-path="url(#a)">
        <path fill="#BF7C6A" stroke="#00112C" stroke-linecap="round" stroke-linejoin="round" stroke-miterlimit="10" d="M189.3 113.7c-1-.3 36.3 28.6 47.7 26.4 9.3-1.8 14.3-59 14.3-59h-9.9l-10.8 36.3s-30.4-22.3-31.8-22.3c-1.4 0-8 19.1-9.5 18.6Z"/>
        <path stroke="#00112C" stroke-linecap="round" stroke-linejoin="round" stroke-miterlimit="10" d="m230.1 116.7 2 3.2"/>
        <path fill="#BF7C6A" d="m259.8 74.6 10-3.6.7-8.1c.1-.9-.6-1.6-1.4-1.7-.8-.1-1.5.5-1.7 1.3l-1.3 6.6-12.6 4.8"/>
        <path stroke="#00112C" stroke-linecap="round" stroke-linejoin="round" stroke-miterlimit="10" d="m259.8 74.6 10-3.6.7-8.1c.1-.9-.6-1.6-1.4-1.7-.8-.1-1.5.5-1.7 1.3l-1.3 6.6-12.6 4.8"/>
        <path fill="#BF7C6A" d="m260.5 75.5 11.1-3.5 2.9-7.1c.3-.8-.1-1.7-.9-2.1-.8-.3-1.6 0-2 .7l-3.2 5.9-10.2 3.2"/>
        <path stroke="#00112C" stroke-linecap="round" stroke-linejoin="round" stroke-miterlimit="10" d="m260.5 75.5 11.1-3.5 2.9-7.1c.3-.8-.1-1.7-.9-2.1-.8-.3-1.6 0-2 .7l-3.2 5.9-10.2 3.2"/>
        <path fill="#BF7C6A" d="m254 76.5 7.4-7.8c.7-.6.8-1.5.2-2.2-.5-.7-1.5-.8-2.2-.4-2 1.3-6.2 5-10.7 7.1-3.1 1.4-5.2 5.8-5.8 7.3"/>
        <path stroke="#00112C" stroke-linecap="round" stroke-linejoin="round" stroke-miterlimit="10" d="m254 76.5 7.4-7.8c.7-.6.8-1.5.2-2.2-.5-.7-1.5-.8-2.2-.4-2 1.3-6.2 5-10.7 7.1-3.1 1.4-5.2 5.8-5.8 7.3"/>
        <path fill="#BF7C6A" d="M250.3 82.2c1.2-.3 21.6-8.6 26.7-10.3.9-.3 1.4-1.2 1.1-2.1-.2-.9-1-1.1-1.9-1-4.4.8-17.9 3.9-19.5 4.2-1.5.2-5.3.6-10.9 3.1a9 9 0 0 0-5.2 8"/>
        <path stroke="#00112C" stroke-linecap="round" stroke-linejoin="round" stroke-miterlimit="10" d="M250.3 82.2c1.2-.3 21.6-8.6 26.7-10.3.9-.3 1.4-1.2 1.1-2.1-.2-.9-1-1.1-1.9-1-4.4.8-17.9 3.9-19.5 4.2-1.5.2-5.3.6-10.9 3.1a9 9 0 0 0-5.2 8"/>
        <path fill="#00112C" d="M130.9 63.1c.8 7.3 4.7 14.1 10.3 18l-3.1-6.4c-.5-1-.9-2-1-3.1l-.1-.3c-.1-.1-.1.2 0 .1"/>
        <path stroke="#00112C" stroke-linecap="round" stroke-linejoin="round" stroke-miterlimit="10" d="M130.9 63.1c.8 7.3 4.7 14.1 10.3 18l-3.1-6.4c-.5-1-.9-2-1-3.1l-.1-.3c-.1-.1-.1.2 0 .1"/>
        <path fill="#BF7C6A" stroke="#00112C" stroke-linecap="round" stroke-linejoin="round" stroke-miterlimit="10" d="m158.9 74.8-13.2.2-1.5 18 8.4 3.6 7.9-3.8-1.6-18Z"/>
        <path fill="#00112C" stroke="#00112C" stroke-linecap="round" stroke-linejoin="round" stroke-miterlimit="10" d="M151.9 83.9c-4.7 0-6.4-2.7-6.4-2.7v-4.6h13.4l.3 6c-.1.1-2.5 1.3-7.3 1.3Z"/>
        <path fill="#00112C" stroke="#00112C" stroke-linecap="round" stroke-linejoin="round" stroke-miterlimit="10" d="M134.5 70.7c2.4 3 6.3 5.7 9.8 7.3 3.6 1.6 15.3 1.7 19.5-1.1 8.8-5.9 10.5-20.3 8.2-30.6-.7-3.4-1.8-6.8-3.7-9.7a22 22 0 0 0-19.8-9.3c-7.5.5-19.3 5.9-20.8 14.2-1.7 9.6.8 21.6 6.8 29.2Z"/>
        <path fill="#BF7C6A" d="M133.2 58.9s-5.1-7-7.8-1.6 4.8 13.4 10.8 11.2"/>
        <path stroke="#00112C" stroke-linecap="round" stroke-linejoin="round" stroke-miterlimit="10" d="M133.2 58.9s-5.1-7-7.8-1.6 4.8 13.4 10.8 11.2"/>
        <path fill="#BF7C6A" d="M169.5 52.4s2.3-8.3 6.7-4.2c4.4 4.1.2 14.2-6.2 14.3"/>
        <path stroke="#00112C" stroke-linecap="round" stroke-linejoin="round" stroke-miterlimit="10" d="M169.5 52.4s2.3-8.3 6.7-4.2c4.4 4.1.2 14.2-6.2 14.3"/>
        <path fill="#BF7C6A" stroke="#00112C" stroke-linecap="round" stroke-linejoin="round" stroke-miterlimit="10" d="M166.9 41.2c-6.3-12-33.4-8.2-34.9 6.3A38.2 38.2 0 0 0 142 77c5.7 5.2 12 4.5 14.1 4.1 2.1-.3 8.2-1.8 11.7-8.8a37.2 37.2 0 0 0-.9-31.1Z"/>
        <path fill="#00112C" stroke="#00112C" stroke-linecap="round" stroke-linejoin="round" stroke-miterlimit="10" d="M134.1 55c7.8-1.1 15.5-2.6 23.1-4.4l-.4-4.8c1 1.6 1.8 2.7 2.4 4.5 3-1.3 6.3-1.5 9.5-1.6 3.1-.1-4.2-14.3-6.1-15.6a16.2 16.2 0 0 0-7.1-2.1c-5.7-.6-11.7-.4-16.7 2.3-4 2.2-7.3 6.4-7.6 11 0 1.5.5 11 2.9 10.7Z"/>
        <path fill="#BF7C6A" stroke="#00112C" stroke-linecap="round" stroke-linejoin="round" stroke-miterlimit="10" d="M114.5 113.7c1-.3-36.3 28.6-47.7 26.4-9.3-1.8-14.3-59-14.3-59h9.9l10.8 36.3s30.4-22.3 31.8-22.3c1.5-.1 8.1 19.1 9.5 18.6Z"/>
        <path stroke="#00112C" stroke-linecap="round" stroke-linejoin="round" stroke-miterlimit="10" d="m73.8 116.7-2.1 3.2"/>
        <path fill="#BF7C6A" d="M44 74.6 34 71l-.7-8.1c-.1-.9.6-1.6 1.4-1.7.8-.1 1.5.5 1.7 1.3l1.3 6.6 12.6 4.8"/>
        <path stroke="#00112C" stroke-linecap="round" stroke-linejoin="round" stroke-miterlimit="10" d="M44 74.6 34 71l-.7-8.1c-.1-.9.6-1.6 1.4-1.7.8-.1 1.5.5 1.7 1.3l1.3 6.6 12.6 4.8"/>
        <path fill="#BF7C6A" d="M43.3 75.5 32.2 72l-2.9-7c-.3-.8.1-1.7.9-2.1.8-.3 1.6 0 2 .7l3.2 5.9 10.2 3.2"/>
        <path stroke="#00112C" stroke-linecap="round" stroke-linejoin="round" stroke-miterlimit="10" d="M43.3 75.5 32.2 72l-2.9-7c-.3-.8.1-1.7.9-2.1.8-.3 1.6 0 2 .7l3.2 5.9 10.2 3.2"/>
        <path fill="#BF7C6A" d="m49.8 76.5-7.4-7.8c-.7-.6-.8-1.5-.2-2.2.5-.7 1.5-.8 2.2-.4 2 1.3 6.2 5 10.7 7.1 3.1 1.4 5.2 5.8 5.8 7.3"/>
        <path stroke="#00112C" stroke-linecap="round" stroke-linejoin="round" stroke-miterlimit="10" d="m49.8 76.5-7.4-7.8c-.7-.6-.8-1.5-.2-2.2.5-.7 1.5-.8 2.2-.4 2 1.3 6.2 5 10.7 7.1 3.1 1.4 5.2 5.8 5.8 7.3"/>
        <path fill="#BF7C6A" d="M53.5 82.2C52.4 81.9 32 73.7 26.8 72a1.6 1.6 0 0 1-1.1-2.1c.2-.9 1-1.1 1.9-1 4.4.8 17.9 3.9 19.5 4.2 1.5.2 5.3.6 10.9 3.1a9 9 0 0 1 5.2 8"/>
        <path stroke="#00112C" stroke-linecap="round" stroke-linejoin="round" stroke-miterlimit="10" d="M53.5 82.2C52.4 81.9 32 73.7 26.8 72a1.6 1.6 0 0 1-1.1-2.1c.2-.9 1-1.1 1.9-1 4.4.8 17.9 3.9 19.5 4.2 1.5.2 5.3.6 10.9 3.1a9 9 0 0 1 5.2 8"/>
        <path fill="#00112C" stroke="#00112C" stroke-linecap="round" stroke-linejoin="round" stroke-miterlimit="10" d="M139.9 87.6c-1.4-3.4-6.3-12.5-9.8-11.7a90.7 90.7 0 0 0-46.2 29.7c-4.4 5.4-2 8.7-2 8.7l7.1 18.8s3.6 2 15.4 1.7c17.4-.5 38.8-26.8 39.5-30.6.4-2.6-1.7-10.8-4-16.6Z"/>
        <path fill="#3300C2" d="m196.6 232.8-18.7-58.1h-51l-20.2 58.1"/>
        <path stroke="#0C112C" stroke-miterlimit="10" d="m196.6 232.8-18.7-58.1h-51l-20.2 58.1"/>
        <path fill="#00112C" stroke="#00112C" stroke-linecap="round" stroke-linejoin="round" stroke-miterlimit="10" d="m159.1 91.8-16.8.1s-20.4 1-21.3 6.8c-1.6 10.6 6.1 52.6 5.9 56.2l-4.8 20.4.2.1c10.7 5 22.7 7.2 34.6 6.2l23.1-1.9-3.2-18.2c-.2-2.7 7.3-46 6.9-61.3-.1-7.1-24.6-8.4-24.6-8.4Z"/>
        <path fill="#00112C" stroke="#00112C" stroke-linecap="round" stroke-linejoin="round" stroke-miterlimit="10" d="m141.4 92 1.6-5.6h18.7l1.1 4.9c-.1.1-8.9 11-21.4.7Zm23.1-4.4c1.4-3.4 6.3-12.5 9.8-11.7a90.7 90.7 0 0 1 46.2 29.7c4.4 5.4 2 8.7 2 8.7l-7.1 18.8s-3.6 2-15.4 1.7c-17.4-.5-38.8-26.8-39.5-30.6a48.3 48.3 0 0 1 4-16.6ZM119.9 18c0-2.5 1.1-4.9 2.7-6.8 1.9-2.2 4.5-3.8 7.4-4.2 2.9-.4 5.9.6 7.9 2.7a4.8 4.8 0 0 0-3-4.1s5-.2 7.1.4a14.7 14.7 0 0 1 11 17.8c-2.3 8.8-14.2 7-21 5.6-5.6-1.2-12-4.9-12.1-11.4Z"/>
    </g>
    <defs>
        <clipPath id="a">
            <path fill="#fff" d="M0 0h300v200H0z"/>
        </clipPath>
    </defs>
</svg>