<svg xmlns="http://www.w3.org/2000/svg" width="223" height="169" fill="none" viewBox="0 0 223 169">
    <path fill="#EAB1A0" stroke="#00112C" stroke-linecap="round" stroke-linejoin="round" stroke-miterlimit="10" stroke-width=".6" d="M36.6 112.2c.6-.1 1-.7 1-1.3l-.9-8.7 2.1 6.6c.2.6.8.8 1.4.7.6-.1 1-.7.8-1.2l-1.3-6.8 2.9-4.8-5.9-5.5-7.6 9 5 4.7 1 6.2c0 .7.7 1.2 1.5 1Z"/>
    <path fill="#EAB1A0" d="M31.7 103.6c.3.4 1.2 6.6 1.5 9 0 .5.6 1 1.1 1h.3c.7 0 1.2-.6 1.1-1.3l-.7-9.1"/>
    <path stroke="#00112C" stroke-linecap="round" stroke-linejoin="round" stroke-miterlimit="10" stroke-width=".6" d="M31.7 103.6c.3.4 1.2 6.6 1.5 9 0 .5.6 1 1.1 1h.3c.7 0 1.2-.6 1.1-1.3l-.7-9.1"/>
    <path fill="#EAB1A0" d="M30.4 99.3v13.1c0 .6.5 1.1 1.2 1.1.5 0 1-.4 1-1l1.2-9.3"/>
    <path stroke="#00112C" stroke-linecap="round" stroke-linejoin="round" stroke-miterlimit="10" stroke-width=".6" d="M30.4 99.3v13.1c0 .6.5 1.1 1.2 1.1.5 0 1-.4 1-1l1.2-9.3"/>
    <path fill="#EAB1A0" d="M35.8 92s-6.5 4.8-6.6 6.2a995 995 0 0 0-.9 10.3c1.5 0 2.8-1 3.2-2.3.6-2.1 1.2-4.9 1-5.1-.1-.3 5-.7 5.8-3.8"/>
    <path stroke="#00112C" stroke-linecap="round" stroke-linejoin="round" stroke-miterlimit="10" stroke-width=".6" d="M35.8 92s-6.5 4.8-6.6 6.2a995 995 0 0 0-.9 10.3c1.5 0 2.8-1 3.2-2.3.6-2.1 1.2-4.9 1-5.1-.1-.3 5-.7 5.8-3.8"/>
    <path fill="#3300C2" stroke="#00112C" stroke-linecap="round" stroke-linejoin="round" stroke-miterlimit="10" stroke-width=".6" d="M95.3 46.7S78 53 70.5 59.4c-7.6 6.4-36.1 31.2-36.1 31.2l11.2 11 38-27.3c3.5-2.6 11.7-27.6 11.7-27.6Z"/>
    <path fill="#00112C" stroke="#00112C" stroke-linecap="round" stroke-linejoin="round" stroke-miterlimit="10" stroke-width=".6" d="m45.6 101.7-11.2-11 29.8-2.5-18.6 13.5ZM186.4 90.4h-7.1v25.3h7.1V90.4ZM215.6 66.7h-7.2V92h7.2V66.7ZM173.7 167.8h-7l8.3-44h7l-8.3 44ZM26.3 167.8h-7l8.3-44h7l-8.3 44ZM209.2 167.8h-7l-8.3-44h7l8.3 44ZM68 91.1h-7v25h7V91Z"/>
    <path fill="#F3F6F9" stroke="#00112C" stroke-linecap="round" stroke-linejoin="round" stroke-miterlimit="10" stroke-width=".6" d="M208.4 66.7H39V92h169.3V66.7Z"/>
    <path fill="#00112C" stroke="#00112C" stroke-linecap="round" stroke-linejoin="round" stroke-miterlimit="10" stroke-width=".6" d="M208.4 123.4v-7.6H39v7.6h169.5Z"/>
    <path fill="#F3F6F9" stroke="#00112C" stroke-linecap="round" stroke-linejoin="round" stroke-miterlimit="10" stroke-width=".6" d="M193.7 123.4V116H15.3v7.5h178.4Z"/>
    <path fill="#00112C" stroke="#00112C" stroke-linecap="round" stroke-linejoin="round" stroke-miterlimit="10" stroke-width=".6" d="M77.4 167.8h-7l-8.3-44h7l8.3 44ZM42.2 150.4l-.8 3h16.2l.7-3.1h-16ZM80.1 150.3l1.4 3h15.1l-1-3H80Z"/>
    <path fill="#00112C" stroke="#00112C" stroke-linecap="round" stroke-linejoin="round" stroke-miterlimit="10" stroke-width=".6" d="m97.8 115.9-28.4.1-7.7 34.7h-23l9.5-40.6a18 18 0 0 1 16.7-12l54-.5-.5 2.6c-2 9.1-10.6 15.6-20.6 15.7Z"/>
    <path fill="#00112C" stroke="#00112C" stroke-linecap="round" stroke-linejoin="round" stroke-miterlimit="10" stroke-width=".6" d="M110.7 115.9H85.5L99 150.3h-25L62.9 117c-3-9 3.6-18.6 13.6-19.4h.8l54.5-1.3-.6 3.9a20.7 20.7 0 0 1-20.4 15.7Z"/>
    <path fill="#F3F6F9" stroke="#00112C" stroke-linecap="round" stroke-linejoin="round" stroke-miterlimit="10" stroke-width=".6" d="M57.6 153.4H41.4l-.8 2.7-16.8 4.2c-2 .7-3.7 2.1-4.7 3.9H55l2.6-10.8ZM96.6 153.4H81.5l1.3 2.9-15.2 4c-2 .7-3.6 2.1-4.6 3.8h37.3l-3.7-10.7Z"/>
    <path fill="#fff" stroke="#00112C" stroke-linecap="round" stroke-linejoin="round" stroke-miterlimit="10" stroke-width=".6" d="m54 168 1-3.8H19a8 8 0 0 0-1 3.8h36ZM101.7 168l-1.3-3.8H63a8 8 0 0 0-1 3.8h39.6Z"/>
    <path fill="#3300C2" d="M86.9 59.6c.3 20-5.4 37.7-5.4 37.7l50.3-.1s4.7-18.7 2-31c-2.6-12.3-16.2-21.8-22.5-22.3-6.2-.6-20.6 4.6-20.6 4.6"/>
    <path stroke="#00112C" stroke-linecap="round" stroke-linejoin="round" stroke-miterlimit="10" stroke-width=".6" d="M86.9 59.6c.3 20-5.4 37.7-5.4 37.7l50.3-.1s4.7-18.7 2-31c-2.6-12.3-16.2-21.8-22.5-22.3-6.2-.6-20.6 4.6-20.6 4.6"/>
    <path fill="#fff" stroke="#00112C" stroke-linecap="round" stroke-linejoin="round" stroke-miterlimit="10" stroke-width=".6" d="M96.7 47.1s.6 5.5 2 9c1.2 3.6 2 7.3 2 7.3s6.8-17.5 8.3-19.6c0 0-8 6.5-12.3 3.3Z"/>
    <path fill="#EAB1A0" stroke="#00112C" stroke-linecap="round" stroke-linejoin="round" stroke-miterlimit="10" stroke-width=".6" d="m105.8 38.3 3.1 5.5s-4 6.8-8.6 6.7c-4.7 0-3.5-5.6-3.5-5.6l9-6.6Z"/>
    <path fill="#00112C" stroke="#00112C" stroke-linecap="round" stroke-linejoin="round" stroke-miterlimit="10" stroke-width=".6" d="m101.8 44.7-4 4.9-1-2.5 5-2.4ZM97 83.1H85.6l-3.3-17.9h11.1l3.4 17.9Z"/>
    <path fill="#EAB1A0" stroke="#00112C" stroke-linecap="round" stroke-linejoin="round" stroke-miterlimit="10" stroke-width=".6" d="M101.6 82.6c-1-1.6-2.3-3-3.2-4.5-1.2-2-1.7-4.5-2.3-6.8-2.5-.7-2.6 4-2.4 6 .3 1.8 1 3.7 1 3.7-2-.4-10.4-4.7-10.4-4.7.3 0-1.4 2.3-.7 3.3l1 1.3s-.7 1.3-.7 2c-.1 1.2 1.1 2.2 1.1 2.2l.1 2.3c.2.8 1.5 1.5 1.5 1.5s0 1.4.7 1.8c.7.3 11.2 1.2 15.8 1.4 0-1.6.5-3.4.3-5 0-1.5-1-3.2-1.8-4.5Z"/>
    <path fill="#00112C" stroke="#00112C" stroke-linecap="round" stroke-linejoin="round" stroke-miterlimit="10" stroke-width=".6" d="M111.7 21.9c.4.8-.2 1.8-1 2.4-.7.5-1.7.7-2.6 1 1.2-.4 2.6-.2 3.8.2.4.2.8.4 1 .7.3.5.1 1.2-.2 1.6-.3.4-.8.8-1.3 1-1.4.7-3 1.2-4.5 1.3 1 0 1.5 1.1 1.1 1.9-.4.8-1.3 1.2-2.2 1.4-1.5.4-3.3.4-4.5-.4-.7-.4-1.1-1-1.5-1.5a7 7 0 0 1-.2-7.4 9 9 0 0 1 5.7-3.8c1.7-.3 5.6-.3 6.4 1.6Z"/>
    <path fill="#00112C" stroke="#00112C" stroke-linecap="round" stroke-linejoin="round" stroke-miterlimit="10" stroke-width=".6" d="M68.7 25c.5 1.7 3 2 4.6 1.3-1.2.2-2.4.4-3.3 1.2-1 .9-1.1 2.4-.1 3 .3.3.8.4 1.3.4a9 9 0 0 0 4.6-1c-1 .6-2 1.9-1.3 3 .6.9 2.2.8 3.2.2 1-.6 2-1.5 3-1.8-.6.4-1.3.8-1.5 1.5-.3.6 0 1.6.6 1.7.5.1 1 0 1.4-.2 1.1-.6 2.2-1.3 3-2.3-1 .3-.8 1.9.1 2.3 1 .4 2 0 3-.6a8.5 8.5 0 0 0 2.8-3c-.3.4 0 1.1.6 1.5 1 .6 2.4.7 3.5.3a9 9 0 0 0 3-2 7 7 0 0 0 2-2.4c.6-1.4.2-3-.7-4.2A10 10 0 0 0 95 21c-4.3-2.3-9.8-3-14.6-1.7a6.6 6.6 0 0 0-6.8-2c-.7.3-1.5.7-1.8 1.4-.5 1.2.5 2.3 1.6 2.8-2 0-5.4 1-4.6 3.5Z"/>
    <path fill="#EAB1A0" stroke="#00112C" stroke-linecap="round" stroke-linejoin="round" stroke-miterlimit="10" stroke-width=".6" d="M80.6 27.7c.7-.7 10.6-6.8 10.6-6.8l10.2 3.8 4.8 9.1v.2c.9 7.4-3.1 10.5-8.8 13.2-5 2.4-16-1.6-16.9-19.4 0 0 0 0 0 0Z"/>
    <path fill="#00112C" stroke="#00112C" stroke-linecap="round" stroke-linejoin="round" stroke-miterlimit="10" stroke-width=".6" d="M70.3 17.3c-.3-.9-.3-1.8.2-2.4.5-.5 1.2-.7 1.9-.6.7 0 1.3.4 1.9.7-.9-.8-.3-2.3.8-2.7 1.1-.3 2.4.1 3.2 1 .5.4 1 4.3 1.5 4.4.6.1 1 0 1.5-.2 2.4-.9 5-1.5 7.4-1.8 1.9-.3 3.8-.4 5.6-.2 2.1.3 4.2 1 6.2 1.9v0c3.4.2 7.4 10.5 6.4 10.8-.9.2.2 0-.1.1-2.1.7-6.4-.7-7.6-1.1a12 12 0 0 1-3.1-2.1c-1.8-1.4-4-2.2-6.2-2.6l-1.4-.2c-1.8.7-3.8 1-5.8.7-.7 0-1.5-.3-2-.8-.3-.4-.3-1.2.2-1.5-1 .5-2.1.7-3.3.7-.7 0-1.6 0-2.2-.7-.6-.5-.5-1.6.3-1.8-1.3.3-2.8.7-4 0-.7-.5-1.2-.7-1.4-1.6Z"/>
    <path fill="#EAB1A0" d="M100 27.8c-.6-1.7.7-4.3 2.4-4.6 2.6-.5 4 2 4.5 4 .5 1.8.6 3.8-.2 5.6-.3.5-.6 1-1.2 1.4"/>
    <path stroke="#00112C" stroke-linecap="round" stroke-linejoin="round" stroke-miterlimit="10" stroke-width=".6" d="M100 27.8c-.6-1.7.7-4.3 2.4-4.6 2.6-.5 4 2 4.5 4 .5 1.8.6 3.8-.2 5.6-.3.5-.6 1-1.2 1.4"/>
    <path fill="#F3F6F9" stroke="#00112C" stroke-linecap="round" stroke-linejoin="round" stroke-miterlimit="10" stroke-width=".6" d="M96.8 7.7c2 0 3.6-1.5 3.6-3.4 0-1.8-1.6-3.3-3.6-3.3s-3.6 1.5-3.6 3.3c0 1.9 1.6 3.4 3.6 3.4Z"/>
    <path fill="#F3F6F9" stroke="#00112C" stroke-linecap="round" stroke-linejoin="round" stroke-miterlimit="10" stroke-width=".6" d="M107.4 22.1c0-.1 0-3.3-1.5-7.5-1.6-4-4.9-9.1-11.6-10.4-8.2-1.2-13.2 4-15.4 7.3-2.3 3.2-2.4 5.3-2.4 5.3a67 67 0 0 1 30.9 5.3Z"/>
    <path fill="#00112C" stroke="#00112C" stroke-linecap="round" stroke-linejoin="round" stroke-miterlimit="10" stroke-width=".6" d="M93.3 17.9c.7-.9.4-2.2-.6-2.7-1-.4-2.4.2-2.7 1.2.7-.9.4-2.2-.5-2.9-.9-.7-2.3-.7-3.2 0-1 .6-1.3 1.9-1 2.9 0-.7 0-1.5-.2-2.1-.3-.7-1-1.3-1.7-1.3-.5 0-1 .2-1.4.5a3 3 0 0 0-1 3c-.3-1-.5-2.1-1.2-3-.7-1-1.8-1.6-3-1.4-1 .2-2 1.3-2 2.3 0 1 .7 2 1.5 2.7.1 0 14.6 4 17 .8Z"/>
    <path fill="#3300C2" d="M128 54.8s22 26.5 18.9 37.8c-2 6.7-47 4.9-47 4.9l2.5-14.3 23.7-1.5-9.7-12.5"/>
    <path stroke="#00112C" stroke-linecap="round" stroke-linejoin="round" stroke-miterlimit="10" stroke-width=".6" d="M128 54.8s22 26.5 18.9 37.8c-2 6.7-47 4.9-47 4.9l2.5-14.3 23.7-1.5-9.7-12.5"/>
    <path fill="#fff" stroke="#00112C" stroke-linecap="round" stroke-linejoin="round" stroke-miterlimit="10" stroke-width=".6" d="M57.4 1.4H1v29.4h33.2L48.9 45l-.2-14.2h8.7V1.4Z"/>
    <path stroke="#00112C" stroke-linecap="round" stroke-linejoin="round" stroke-miterlimit="10" stroke-width=".6" d="M2.3 168h219.4"/>
    <path fill="#00112C" stroke="#00112C" stroke-linecap="round" stroke-linejoin="round" stroke-miterlimit="10" stroke-width=".6" d="M29.2 26.3c6.2 0 11.3-4.7 11.3-10.5S35.4 5.2 29.2 5.2C23 5.2 17.9 10 17.9 15.8s5 10.5 11.3 10.5Z"/>
    <path stroke="#fff" stroke-linecap="round" stroke-linejoin="round" stroke-miterlimit="10" stroke-width=".6" d="m25.2 12 8 7.5M33.2 12l-8 7.5"/>
</svg>