<svg width="152" height="153" viewBox="0 0 152 153" fill="none" xmlns="http://www.w3.org/2000/svg">
<path d="M38.7639 102.275C43.9631 109.177 51.092 114.625 59.1307 117.801C62.4608 119.118 64.7379 122.349 64.4181 125.916C64.1976 128.398 63.2603 130.851 61.7716 132.704C58.8274 136.37 53.4242 137.831 49.0355 136.149C48.2526 140.753 45.0547 145.704 40.9472 147.926C36.8396 150.148 31.5522 150.159 27.5715 147.717C23.5907 145.274 21.1924 140.373 21.9643 135.769C16.732 137.203 12.1778 138.443 5.96963 133.58C5.1371 132.93 4.35418 132.185 3.75321 131.314C1.85657 128.552 1.23355 124.863 2.47408 121.754C3.73667 118.589 7.05028 116.246 10.4521 116.472C9.03513 112.761 10.1158 108.229 13.1427 105.66C16.1696 103.091 20.845 102.683 24.2744 104.69C24.528 103.664 24.9967 102.727 25.6252 101.889C28.9002 97.5275 35.4888 97.919 38.7694 102.275H38.7639Z" fill="#00112C" stroke="#00112C" stroke-linecap="round" stroke-linejoin="round"/>
<path d="M93.403 106.338C102.032 105.93 110.55 103.107 117.706 98.2603C120.673 96.2534 124.626 96.1873 127.388 98.4643C129.312 100.047 130.812 102.197 131.507 104.474C132.874 108.973 131.044 114.255 127.179 116.94C130.542 120.176 132.83 125.613 132.35 130.261C131.871 134.903 128.904 139.281 124.642 141.194C120.38 143.102 114.977 142.33 111.608 139.093C109.85 144.221 108.306 148.687 100.791 151.074C99.7821 151.394 98.729 151.625 97.6704 151.631C94.3182 151.642 90.9219 150.082 89.0473 147.303C87.1396 144.474 87.0735 140.422 89.1741 137.737C85.3092 136.822 82.1775 133.37 81.7585 129.423C81.345 125.475 83.6386 121.384 87.2279 119.68C86.5221 118.897 86.0149 117.977 85.673 116.984C83.9142 111.824 87.9501 106.597 93.3974 106.338H93.403Z" fill="#00112C" stroke="#00112C" stroke-linecap="round" stroke-linejoin="round"/>
<path d="M50.0009 113.378C48.2311 110.704 47.9499 107.263 48.5398 104.115C49.1904 100.664 51.4454 97.5982 51.8038 94.1853C52.1677 90.6953 51.4179 87.3541 48.7218 84.8896C46.4061 82.7724 43.0539 81.8517 39.9774 82.4747C43.5281 80.2638 45.2483 75.2961 44.6307 71.161C44.0077 67.0259 40.7658 63.4036 36.7189 62.3339C38.202 60.3325 38.9849 57.7026 39.0566 55.216C39.1724 50.9872 37.3805 46.5654 33.8464 44.2442C30.3122 41.923 25.0303 42.2593 22.3232 45.5123C19.8146 41.5812 14.0089 39.3151 9.58704 40.8038C5.17073 42.2979 2.02805 46.8521 2.06664 51.5165C2.10524 56.1809 5.23138 60.6303 9.55396 62.378C4.63593 63.6406 0.241677 68.9611 0.511838 74.028C0.781999 79.0949 4.96673 83.6822 9.98952 84.4154C8.62769 88.8869 10.8772 95.2384 14.9792 97.4824C19.0813 99.7264 24.6885 98.6954 27.7264 95.1392C26.9711 99.5279 29.9373 104.325 33.9346 106.282C37.9319 108.245 42.7562 107.958 46.9244 106.387" fill="#85DFA9"/>
<path d="M50.0009 113.378C48.2311 110.704 47.9499 107.263 48.5398 104.115C49.1904 100.664 51.4454 97.5982 51.8038 94.1853C52.1677 90.6953 51.4179 87.3541 48.7218 84.8896C46.4061 82.7724 43.0539 81.8517 39.9774 82.4747C43.5281 80.2638 45.2483 75.2961 44.6307 71.161C44.0077 67.0259 40.7658 63.4036 36.7189 62.3339C38.202 60.3325 38.9849 57.7026 39.0566 55.216C39.1724 50.9872 37.3805 46.5654 33.8464 44.2442C30.3122 41.923 25.0303 42.2593 22.3232 45.5123C19.8146 41.5812 14.0089 39.3151 9.58703 40.8038C5.17073 42.2979 2.02805 46.8521 2.06664 51.5165C2.10524 56.1809 5.23138 60.6303 9.55396 62.378C4.63593 63.6406 0.241677 68.9611 0.511838 74.028C0.781999 79.0949 4.96673 83.6822 9.98952 84.4154C8.62769 88.8869 10.8772 95.2384 14.9792 97.4824C19.0813 99.7264 24.6885 98.6954 27.7264 95.1392C26.9711 99.5279 29.9373 104.325 33.9346 106.282C37.9319 108.245 42.7562 107.958 46.9244 106.387" stroke="#00112C" stroke-linecap="round" stroke-linejoin="round"/>
<path d="M19.4275 60.1836C18.799 68.0183 21.1146 76.057 25.8121 82.3589C30.256 88.3134 36.5634 92.5698 41.8343 97.8077C46.1073 102.053 47.1107 104.997 46.9288 106.392" fill="#85DFA9"/>
<path d="M19.4275 60.1836C18.799 68.0183 21.1146 76.057 25.8121 82.3589C30.256 88.3134 36.5634 92.5698 41.8343 97.8077C46.1073 102.053 47.1107 104.997 46.9288 106.392" stroke="#00112C" stroke-linecap="round" stroke-linejoin="round"/>
<path d="M94.9245 106.172C97.8411 103.145 102.075 101.425 106.277 101.563C110.131 101.684 113.891 103.277 117.728 102.886C122.795 102.373 127.2 97.9956 127.746 92.9287C130.9 94.8143 136.182 94.9246 138.922 92.4766C141.662 90.0286 142.567 85.7446 141.045 82.4034C139.529 79.0568 135.708 76.9175 132.063 77.3696C135.675 76.3331 139.617 73.4385 141.188 70.0312C142.765 66.6238 142.539 62.3619 140.35 59.313C138.161 56.264 133.988 54.6871 130.404 55.8174C130.999 52.8567 129.031 49.3556 126.44 47.8118C123.843 46.2736 120.468 46.3066 117.745 47.6189C115.027 48.9255 112.954 51.3956 111.807 54.1909C110.66 56.9863 110.39 60.0793 110.671 63.0897C107.754 61.9263 103.939 62.3013 101.37 64.1152C98.806 65.9291 97.2457 69.0884 97.3725 72.2255C97.4938 75.3682 99.2967 78.3896 101.998 79.9996C96.2918 79.8011 91.043 84.4655 89.3724 89.9238C87.7018 95.3822 89.0416 101.414 91.7818 106.42C94.522 111.426 92.0078 109.204 94.9245 106.178V106.172Z" fill="#0ABE53" stroke="#00112C" stroke-linecap="round" stroke-linejoin="round"/>
<path d="M120.451 72.2037C112.815 80.1872 107.263 90.1391 104.484 100.83" stroke="#00112C" stroke-linecap="round" stroke-linejoin="round"/>
<path d="M62.2126 77.4633C67.6213 80.0602 68.6689 77.2097 74.0776 79.8066C69.9591 93.3973 69.8488 100.482 58.8329 109.453C56.7543 111.145 54.5213 111.04 49.2173 107.848C39.3261 101.894 45.821 78.759 49.2173 72.209C52.9224 65.0525 60.8839 62.406 72.6 62.1248C80.5615 61.9319 79.8006 64.7051 86.2183 63.1614C98.6182 60.1841 130.762 75.0319 132.057 77.3696C134.026 80.9203 136.319 90.5193 130.155 95.7461C123.991 100.973 96.6388 87.5585 96.694 88.2312C98.5465 110.291 81.6752 112.672 81.3885 126.715C70.0032 128.325 60.5917 121.648 49.3497 119.239L53.7935 108.223" fill="#08903F"/>
<path d="M62.2126 77.4633C67.6213 80.0602 68.6689 77.2097 74.0776 79.8066C69.9591 93.3973 69.8488 100.482 58.8329 109.453C56.7543 111.145 54.5213 111.04 49.2173 107.848C39.3261 101.894 45.821 78.759 49.2173 72.209C52.9224 65.0525 60.8839 62.406 72.6 62.1248C80.5615 61.9319 79.8006 64.7051 86.2183 63.1614C98.6182 60.1841 130.762 75.0319 132.057 77.3696C134.026 80.9203 136.319 90.5193 130.155 95.7461C123.991 100.973 96.6388 87.5585 96.694 88.2312C98.5465 110.291 81.6752 112.672 81.3885 126.715C70.0032 128.325 60.5917 121.648 49.3497 119.239L53.7935 108.223" stroke="#00112C" stroke-linecap="round" stroke-linejoin="round"/>
<path d="M115.827 77.6229C115.827 77.6229 113.5 81.4272 113.914 84.3328" stroke="#00112C" stroke-linecap="round" stroke-linejoin="round"/>
<path d="M71.6583 89.2071L68.3391 103.178L65.02 103.294C65.02 103.294 68.3391 98.8061 71.6583 89.2071Z" fill="#00112C" stroke="#00112C" stroke-linecap="round" stroke-linejoin="round"/>
<path d="M79.9333 45.6446L76.2668 59.2795C76.2668 59.2795 62.5603 79.2824 85.5625 74.0281C93.5736 72.1976 87.6687 64.9749 87.9774 60.0734C88.3358 54.3725 89.5543 51.6819 89.5543 51.6819L79.9388 45.6446H79.9333Z" fill="#EF9B75" stroke="#00112C" stroke-linecap="round" stroke-linejoin="round"/>
<path d="M103.321 24.6606C103.321 24.6606 109.226 45.5291 100.575 52.8566C91.9244 60.184 79.5025 55.7953 75.7478 40.9474C73.6031 32.4732 89.0629 14.3559 103.321 24.6606Z" fill="#EF9B75" stroke="#00112C" stroke-linecap="round" stroke-linejoin="round"/>
<path d="M93.3919 48.1533C94.5718 48.2249 95.7186 48.6274 96.7497 49.2063C96.6559 50.2208 96.0991 51.2188 95.2004 51.6984C94.1528 52.1836 91.9033 52.2553 90.7124 51.0754C90.2382 50.6068 89.6373 49.5316 89.9295 48.9362C90.139 48.5116 91.9695 48.0651 93.3919 48.1478V48.1533Z" fill="#D36244"/>
<path d="M88.6392 48.3082C91.3794 50.2048 95.1671 50.4529 98.1279 48.9257" stroke="#00112C" stroke-linecap="round" stroke-linejoin="round"/>
<path d="M91.285 12.1618C96.0597 12.3768 100.757 13.6229 105.229 15.31C105.708 15.492 106.287 15.9055 106.089 16.3741C104.104 15.6188 101.932 14.8579 99.9026 15.4809C104.258 15.6629 108.316 18.9103 109.446 23.1226C109.54 23.4645 109.612 23.8339 109.496 24.1702C109.397 24.4514 109.182 24.6719 108.967 24.8814C106.535 27.1861 103.382 28.6582 100.107 29.3804C96.8316 30.1027 93.4298 30.1027 90.0996 29.7333L87.7013 25.3611C86.3449 25.306 86.3063 29.4521 86.1465 30.3949C85.4187 34.7616 84.5476 39.1779 83.0313 43.3516C82.4304 45.0112 81.7357 46.792 80.5723 48.1483C80.0485 48.7603 79.4145 49.3613 78.5709 49.433C77.8983 49.4881 77.2753 49.2731 76.5695 49.3668C75.5826 49.4991 74.5957 49.7693 73.6198 49.9733C73.3386 50.0284 73.0354 50.0891 72.7707 49.9733C72.5116 49.8685 72.3407 49.626 72.1863 49.3944C70.4496 46.7534 69.4571 43.6218 69.3634 40.4625C68.7735 42.2489 68.4978 44.1345 68.5529 46.0146C68.5805 46.9188 68.6742 47.8782 68.2662 48.6831C67.4227 47.6907 67.0974 46.3675 66.8879 45.0773C65.9726 39.437 66.2648 31.8009 67.8307 26.3094C69.1815 21.5678 71.7728 11.2631 91.2905 12.1508L91.285 12.1618Z" fill="#00112C" stroke="#00112C" stroke-linecap="round" stroke-linejoin="round"/>
<path d="M106.083 47.6742C106.177 48.0546 106.976 51.3296 109.364 52.7245C110.825 53.5791 113.648 72.4297 116.581 79.7682C118.207 83.8261 128.854 83.2693 132.057 77.3698C132.068 77.3533 118.99 52.8403 118.737 50.3923C118.483 47.9443 117.992 34.6844 117.992 34.6844C117.992 34.6844 104.346 40.843 106.078 47.6687L106.083 47.6742Z" fill="#EF9B75" stroke="#00112C" stroke-linecap="round" stroke-linejoin="round"/>
<path d="M102.892 32.738C98.8837 32.738 95.6362 35.9855 95.6362 39.9938C95.6362 44.0021 98.8837 47.2495 102.892 47.2495H120.237V32.738H102.892Z" fill="#00112C" stroke="#00112C" stroke-linecap="round" stroke-linejoin="round"/>
<path d="M120.235 47.2495C124.242 47.2495 127.491 44.001 127.491 39.9938C127.491 35.9865 124.242 32.738 120.235 32.738C116.228 32.738 112.979 35.9865 112.979 39.9938C112.979 44.001 116.228 47.2495 120.235 47.2495Z" fill="#F3F6F9" stroke="#00112C" stroke-linecap="round" stroke-linejoin="round"/>
<path d="M105.008 30.7144C105.008 30.7144 99.8366 30.8798 100.245 32.3078C100.653 33.7358 108.57 32.6882 108.57 32.6882C108.57 32.6882 108.57 30.9294 105.008 30.7144Z" fill="#EF9B75" stroke="#00112C" stroke-linecap="round" stroke-linejoin="round"/>
<path d="M107.677 30.7144C107.677 30.7144 102.505 30.8798 102.913 32.3078C103.321 33.7358 111.238 32.6882 111.238 32.6882C111.238 32.6882 111.238 30.9294 107.677 30.7144Z" fill="#EF9B75" stroke="#00112C" stroke-linecap="round" stroke-linejoin="round"/>
<path d="M110.351 30.7144C110.351 30.7144 105.179 30.8798 105.587 32.3078C105.995 33.7358 113.913 32.6882 113.913 32.6882C113.913 32.6882 113.913 30.9294 110.351 30.7144Z" fill="#EF9B75" stroke="#00112C" stroke-linecap="round" stroke-linejoin="round"/>
<path d="M113.019 30.7144C113.019 30.7144 107.848 30.8798 108.256 32.3078C108.664 33.7358 116.581 32.6882 116.581 32.6882C116.581 32.6882 116.581 30.9294 113.019 30.7144Z" fill="#EF9B75" stroke="#00112C" stroke-linecap="round" stroke-linejoin="round"/>
<path d="M85.5458 32.738C81.5375 32.738 78.29 35.9855 78.29 39.9938C78.29 44.0021 81.5375 47.2495 85.5458 47.2495H102.891V32.738H85.5458Z" fill="#00112C" stroke="#00112C" stroke-linecap="round" stroke-linejoin="round"/>
<path d="M102.892 47.2495C106.899 47.2495 110.148 44.001 110.148 39.9938C110.148 35.9865 106.899 32.738 102.892 32.738C98.8847 32.738 95.6362 35.9865 95.6362 39.9938C95.6362 44.001 98.8847 47.2495 102.892 47.2495Z" fill="#F3F6F9" stroke="#00112C" stroke-linecap="round" stroke-linejoin="round"/>
<path d="M87.1844 51.7098C87.1844 51.7098 90.4428 48.5009 89.1692 45.055C87.8956 41.6091 86.3022 38.301 86.6606 36.7572C87.019 35.2134 89.9907 32.6717 89.9907 32.6717C89.9907 32.6717 89.2023 30.5214 86.7102 31.7454C86.7102 31.7454 85.7123 29.6227 83.0989 31.3374C83.0989 31.3374 81.3676 29.4849 79.7026 31.15C79.7026 31.15 78.0375 29.0108 76.3779 31.2713C74.7128 33.5263 73.1691 33.8847 74.4758 38.0418C75.7825 42.199 78.87 45.6449 78.1588 47.7842C77.4475 49.9234 59.0601 76.8568 59.0601 76.8568L70.1036 82.7562C72.0664 84.0078 74.6798 83.1532 75.5178 80.9809C78.5172 73.2069 83.347 56.0213 84.7639 54.2019C85.8556 52.8014 87.1844 51.7098 87.1844 51.7098Z" fill="#EF9B75" stroke="#00112C" stroke-linecap="round" stroke-linejoin="round"/>
<path d="M86.7101 31.7507C86.7101 31.7507 83.5013 34.4854 82.79 35.6708L86.7101 31.7507Z" fill="#EF9B75"/>
<path d="M86.7101 31.7507C86.7101 31.7507 83.5013 34.4854 82.79 35.6708" stroke="#00112C" stroke-linecap="round" stroke-linejoin="round"/>
<path d="M79.6974 31.1559C79.6974 31.1559 77.4368 33.5322 77.084 34.3647L79.6974 31.1559Z" fill="#EF9B75"/>
<path d="M79.6974 31.1559C79.6974 31.1559 77.4368 33.5322 77.084 34.3647" stroke="#00112C" stroke-linecap="round" stroke-linejoin="round"/>
<path d="M83.0931 31.3426L79.6968 34.8381" stroke="#00112C" stroke-linecap="round" stroke-linejoin="round"/>
<path d="M102.893 35.478C105.385 35.478 107.409 37.5015 107.409 39.9936" stroke="#00112C" stroke-linecap="round" stroke-linejoin="round"/>
<path d="M120.238 35.478C122.73 35.478 124.754 37.5015 124.754 39.9936" stroke="#00112C" stroke-linecap="round" stroke-linejoin="round"/>
<path d="M84.7651 54.2079C84.7651 54.2079 86.557 55.6139 88.4426 55.9447L88.3103 56.7938L84.0098 55.7517C84.0098 55.7517 84.4288 54.6325 84.7706 54.2079H84.7651Z" fill="#00112C" stroke="#00112C" stroke-linecap="round" stroke-linejoin="round"/>
<path d="M71.0524 90.5189C71.7085 88.3797 73.539 87.2715 74.2282 86.2018C74.9174 85.1322 74.2282 84.0571 74.2282 84.0571C74.2282 84.0571 77.2882 83.2521 76.1028 82.1605C75.0442 81.1846 62.909 75.4009 60.3287 74.1769C60.053 74.0446 59.7222 74.1383 59.5513 74.392L53.9165 82.8221" fill="#08903F"/>
<path d="M71.0524 90.5189C71.7085 88.3797 73.539 87.2715 74.2282 86.2018C74.9174 85.1322 74.2282 84.0571 74.2282 84.0571C74.2282 84.0571 77.2882 83.2521 76.1028 82.1605C75.0442 81.1846 62.909 75.4009 60.3287 74.1769C60.053 74.0446 59.7222 74.1383 59.5513 74.392L53.9165 82.8221" stroke="#00112C" stroke-linecap="round" stroke-linejoin="round"/>
<path d="M85.0898 119.895C85.7238 115.578 87.3944 111.509 89.9141 108.03C87.0195 107.203 83.7059 107.66 80.475 109.987C79.3613 110.786 78.3909 111.779 77.5859 112.898C75.7334 115.473 74.752 118.345 74.3164 121.312L85.0898 119.895Z" fill="#0ABE53" stroke="#00112C" stroke-linecap="round" stroke-linejoin="round"/>
<path d="M147.161 113.229C144.09 110.792 140.037 109.855 136.117 109.872C132.197 109.888 128.338 110.781 124.517 111.675C126.623 107.97 124.351 101.872 120.883 99.396C117.415 96.915 112.85 96.529 108.616 96.9977C106.625 97.2182 104.315 97.8908 101.867 98.8281C96.9327 100.714 92.8528 103.972 89.9141 108.025C94.0823 109.21 97.3628 113.053 98.2449 117.778C98.9727 121.682 98.5316 125.701 98.7356 129.671C98.9396 133.64 99.9541 137.847 102.909 140.499C105.925 143.206 110.733 143.669 114.212 141.591C117.691 139.507 119.549 135.046 118.584 131.115C119.428 135.145 122.074 140.185 125.046 143.035C128.238 146.101 132.599 148.119 137.021 147.849C141.438 147.578 145.771 144.733 147.166 140.527C148.561 136.32 146.405 131.077 142.232 129.604C146.052 130.481 150.403 127.416 151.274 123.589C152.139 119.763 150.243 115.655 147.166 113.218L147.161 113.229Z" fill="#85DFA9" stroke="#00112C" stroke-linecap="round" stroke-linejoin="round"/>
<path d="M89.9141 108.03C98.2174 106.508 107.111 107.693 114.405 111.944C121.699 116.195 127.395 123.115 130.163 131.093" stroke="#00112C" stroke-linecap="round" stroke-linejoin="round"/>
<path d="M62.8432 117.1H69.1561C69.4263 115.556 69.5917 114.001 69.5586 112.436C69.4869 108.879 68.2795 105.185 65.5779 102.87C62.8762 100.554 58.5041 100.058 55.7749 102.34C55.4992 102.572 55.2511 102.826 55.0195 103.096C56.9162 104.832 58.4985 106.966 59.7225 109.232C61.0678 111.724 62.0272 114.382 62.8377 117.1H62.8432Z" fill="#0ABE53" stroke="#00112C" stroke-linecap="round" stroke-linejoin="round"/>
<path d="M49.2618 99.5943C45.0716 98.1607 40.3024 98.7397 36.4319 100.895C32.567 103.046 29.6062 106.696 28.0294 110.831C24.0928 109.066 17.6916 110.18 14.797 113.372C11.8969 116.565 11.3345 121.659 13.4738 125.403C8.83694 125.827 4.52539 130.382 4.52539 135.035C4.52539 139.688 8.23597 144.016 12.8011 144.921C17.3663 145.825 22.3395 143.36 24.5614 139.269C27.3733 139.887 30.1907 141.067 33.0081 140.499C35.8255 139.931 38.5436 138.382 40.0267 135.917C41.5099 133.453 41.5264 130.04 39.6684 127.845C42.0502 129.152 45.3087 129.781 47.8393 128.794C50.37 127.807 52.421 125.662 53.2922 123.093C54.45 119.674 53.5513 115.958 53.1268 112.375C52.7463 109.149 52.9503 105.488 55.0069 103.101C53.3308 101.563 51.4066 100.333 49.2508 99.5998L49.2618 99.5943Z" fill="#08903F" stroke="#00112C" stroke-linecap="round" stroke-linejoin="round"/>
<path d="M54.6267 103.294C41.273 104.595 29.1047 114.277 24.8979 126.947" stroke="#00112C" stroke-linecap="round" stroke-linejoin="round"/>
<path d="M61.9391 99.7544C70.2425 102.142 79.2129 102.213 87.5493 99.9253C91.0007 98.977 94.7665 100.19 96.6521 103.233C97.9643 105.351 98.6921 107.87 98.6149 110.247C98.466 114.95 95.0256 119.36 90.5045 120.656C92.6438 124.802 93.0628 130.691 91.1165 134.93C89.1703 139.176 84.9469 142.363 80.2991 142.798C75.6512 143.234 70.7828 140.764 68.638 136.618C65.3189 140.907 62.4243 144.634 54.5401 144.48C53.4815 144.458 52.4118 144.336 51.4084 144C48.2326 142.931 45.5145 140.361 44.6378 137.13C43.7446 133.839 44.9852 129.979 47.8357 128.116C44.4724 126.004 42.6144 121.731 43.491 117.861C44.3677 113.99 47.8577 110.853 51.8054 110.395C51.3919 109.425 51.2044 108.394 51.2044 107.346C51.2044 101.894 56.7069 98.2492 61.9447 99.7544H61.9391Z" fill="#0ABE53" stroke="#00112C" stroke-linecap="round" stroke-linejoin="round"/>
<path d="M74.3173 101.59C68.9306 107.307 65.9644 115.6 65.6611 123.451" stroke="#00112C" stroke-linecap="round" stroke-linejoin="round"/>
<path d="M96.7005 88.2367L96.1602 84.8514C96.1602 84.8514 98.4262 88.8211 102.203 90.2988L96.7005 88.2367Z" fill="#00112C" stroke="#00112C" stroke-linecap="round" stroke-linejoin="round"/>
<path d="M78.3414 14.6812C78.5178 12.9334 78.1925 11.1746 77.779 9.46541C77.1008 6.67558 76.0478 3.781 73.7817 2.01669C73.2965 1.63626 72.7341 1.31096 72.1221 1.27237C71.5101 1.23377 70.8375 1.55355 70.639 2.13798C71.8465 2.34749 72.8168 3.50533 72.8058 4.73484C70.1263 3.27376 67.4136 1.81269 64.4639 1.03529C61.5142 0.263397 58.2612 0.230316 55.5266 1.57561C52.7919 2.9209 50.7188 5.83202 50.9338 8.87546C51.0772 10.8989 52.1909 12.7735 53.7016 14.1243C55.2178 15.4751 57.1034 16.3462 59.0386 16.9472C55.7967 16.6054 52.6265 15.5854 49.7925 13.9754C49.4286 14.3393 49.4452 14.9568 49.6988 15.4034C49.9524 15.85 50.388 16.1588 50.8235 16.4234C52.9573 17.7246 55.4549 18.4248 57.958 18.4193C55.5651 18.8273 53.0896 18.7391 50.7353 18.1547C50.5093 18.717 50.7408 19.3787 51.1544 19.8197C51.5679 20.2608 52.1358 20.5199 52.6926 20.7515C58.1124 22.99 64.2709 23.398 69.9388 21.8928C73.7597 20.8783 77.9058 19.0534 78.3414 14.6867V14.6812Z" fill="#00112C" stroke="#00112C" stroke-linecap="round" stroke-linejoin="round"/>
</svg>
