<svg width="252" height="225" viewBox="0 0 232 240" fill="none" xmlns="http://www.w3.org/2000/svg">
<path d="M70.4349 161.295C78.6492 172.2 89.9123 180.807 102.613 185.824C107.874 187.906 111.472 193.011 110.966 198.647C110.618 202.566 109.137 206.443 106.785 209.37C102.134 215.162 93.597 217.471 86.6632 214.814C85.4262 222.087 80.3739 229.91 73.8844 233.42C67.3948 236.931 59.0411 236.948 52.7519 233.089C46.4627 229.23 42.6734 221.486 43.893 214.213C35.6264 216.478 28.4312 218.438 18.6228 210.755C17.3075 209.727 16.0706 208.551 15.1211 207.174C12.1245 202.81 11.1402 196.983 13.1002 192.07C15.0949 187.07 20.3301 183.368 25.7047 183.725C23.466 177.863 25.1734 170.702 29.9556 166.643C34.7379 162.584 42.1247 161.939 47.5428 165.11C47.9435 163.49 48.6839 162.009 49.677 160.685C54.8512 153.794 65.2606 154.413 70.4436 161.295H70.4349Z" fill="#00112C" stroke="#00112C" stroke-linecap="round" stroke-linejoin="round"/>
<path d="M156.76 167.714C170.392 167.069 183.851 162.61 195.157 154.953C199.844 151.782 206.089 151.677 210.453 155.275C213.494 157.775 215.863 161.172 216.96 164.77C219.121 171.878 216.229 180.223 210.122 184.465C215.436 189.578 219.051 198.167 218.293 205.51C217.535 212.845 212.849 219.761 206.115 222.784C199.382 225.798 190.845 224.578 185.523 219.465C182.744 227.566 180.305 234.622 168.432 238.394C166.838 238.899 165.175 239.265 163.502 239.274C158.206 239.291 152.84 236.826 149.878 232.436C146.864 227.967 146.76 221.564 150.079 217.322C143.972 215.876 139.025 210.423 138.363 204.186C137.709 197.949 141.333 191.486 147.004 188.794C145.889 187.557 145.087 186.103 144.547 184.535C141.769 176.381 148.145 168.123 156.751 167.714H156.76Z" fill="#00112C" stroke="#00112C" stroke-linecap="round" stroke-linejoin="round"/>
<path d="M88.1883 178.838C85.3922 174.613 84.9479 169.178 85.88 164.204C86.9079 158.751 90.4706 153.907 91.0368 148.515C91.6117 143.002 90.427 137.723 86.1674 133.829C82.5089 130.484 77.2127 129.029 72.3521 130.014C77.9618 126.521 80.6796 118.672 79.704 112.139C78.7197 105.606 73.5977 99.8829 67.2039 98.193C69.5472 95.031 70.7841 90.8759 70.8973 86.9473C71.0803 80.2661 68.2493 73.28 62.6656 69.6127C57.082 65.9455 48.737 66.4768 44.46 71.6162C40.4965 65.4054 31.324 61.8253 24.3379 64.1772C17.3606 66.5378 12.3954 73.733 12.4564 81.1023C12.5173 88.4717 17.4564 95.5013 24.2857 98.2627C16.5156 100.257 9.57307 108.663 9.9999 116.669C10.4267 124.674 17.0383 131.921 24.9738 133.08C22.8223 140.144 26.3763 150.179 32.8571 153.725C39.338 157.27 48.1969 155.641 52.9966 150.022C51.8032 156.956 56.4896 164.535 62.805 167.627C69.1203 170.728 76.7423 170.275 83.3277 167.793" fill="#85DFA9"/>
<path d="M88.1883 178.838C85.3922 174.613 84.9479 169.178 85.88 164.204C86.9079 158.751 90.4706 153.907 91.0368 148.515C91.6117 143.002 90.427 137.723 86.1674 133.829C82.5089 130.484 77.2127 129.029 72.3521 130.014C77.9618 126.521 80.6796 118.672 79.704 112.139C78.7197 105.606 73.5977 99.8829 67.2039 98.193C69.5472 95.031 70.7841 90.8759 70.8973 86.9473C71.0803 80.2661 68.2493 73.28 62.6656 69.6127C57.082 65.9455 48.737 66.4768 44.46 71.6162C40.4965 65.4054 31.324 61.8253 24.3379 64.1772C17.3606 66.5378 12.3954 73.733 12.4564 81.1023C12.5173 88.4717 17.4564 95.5013 24.2857 98.2627C16.5156 100.257 9.57307 108.663 9.9999 116.669C10.4267 124.674 17.0383 131.921 24.9738 133.08C22.8223 140.144 26.3763 150.179 32.8571 153.725C39.338 157.27 48.1969 155.641 52.9966 150.022C51.8032 156.956 56.4896 164.535 62.805 167.627C69.1203 170.728 76.7423 170.275 83.3277 167.793" stroke="#00112C" stroke-linecap="round" stroke-linejoin="round"/>
<path d="M39.8873 94.7957C38.8942 107.174 42.5528 119.874 49.9744 129.831C56.9953 139.238 66.9605 145.963 75.2881 154.238C82.039 160.946 83.6244 165.597 83.3369 167.801" fill="#85DFA9"/>
<path d="M39.8873 94.7957C38.8942 107.174 42.5528 119.874 49.9744 129.831C56.9953 139.238 66.9605 145.963 75.2881 154.238C82.039 160.946 83.6244 165.597 83.3369 167.801" stroke="#00112C" stroke-linecap="round" stroke-linejoin="round"/>
<path d="M159.164 167.453C163.772 162.67 170.462 159.953 177.1 160.17C183.189 160.362 189.129 162.88 195.192 162.261C203.197 161.451 210.157 154.535 211.02 146.529C216.002 149.508 224.347 149.683 228.677 145.815C233.006 141.947 234.434 135.179 232.03 129.9C229.635 124.613 223.598 121.233 217.84 121.947C223.546 120.31 229.774 115.736 232.257 110.353C234.748 104.97 234.391 98.2364 230.933 93.4193C227.474 88.6023 220.88 86.111 215.218 87.8967C216.159 83.219 213.049 77.6876 208.955 75.2485C204.852 72.8182 199.521 72.8705 195.218 74.9437C190.924 77.0081 187.649 80.9106 185.837 85.327C184.025 89.7434 183.598 94.6301 184.042 99.3863C179.434 97.5483 173.406 98.1406 169.347 101.006C165.297 103.872 162.831 108.864 163.032 113.82C163.223 118.785 166.072 123.559 170.34 126.102C161.324 125.789 153.032 133.158 150.392 141.782C147.753 150.406 149.87 159.935 154.199 167.845C158.528 175.754 154.556 172.244 159.164 167.461V167.453Z" fill="#0ABE53" stroke="#00112C" stroke-linecap="round" stroke-linejoin="round"/>
<path d="M199.496 113.786C187.431 126.399 178.659 142.122 174.269 159.012" stroke="#00112C" stroke-linecap="round" stroke-linejoin="round"/>
<path d="M107.483 122.096C116.028 126.198 117.683 121.695 126.229 125.798C119.722 147.27 119.547 158.463 102.143 172.636C98.8592 175.31 95.3313 175.145 86.9515 170.101C71.3243 160.693 81.5856 124.143 86.9515 113.794C92.8052 102.488 105.384 98.3063 123.894 97.8621C136.473 97.5572 135.271 101.939 145.41 99.4997C165.001 94.7959 215.785 118.254 217.832 121.948C220.942 127.557 224.565 142.723 214.827 150.981C205.088 159.239 161.873 138.045 161.961 139.108C164.887 173.96 138.232 177.723 137.779 199.909C119.791 202.453 104.922 191.904 87.1606 188.098L94.1815 170.693" fill="#08903F"/>
<path d="M107.483 122.096C116.028 126.198 117.683 121.695 126.229 125.798C119.722 147.27 119.547 158.463 102.143 172.636C98.8592 175.31 95.3313 175.145 86.9515 170.101C71.3243 160.693 81.5856 124.143 86.9515 113.794C92.8052 102.488 105.384 98.3063 123.894 97.8621C136.473 97.5572 135.271 101.939 145.41 99.4997C165.001 94.7959 215.785 118.254 217.832 121.948C220.942 127.557 224.565 142.723 214.827 150.981C205.088 159.239 161.873 138.045 161.961 139.108C164.887 173.96 138.232 177.723 137.779 199.909C119.791 202.453 104.922 191.904 87.1606 188.098L94.1815 170.693" stroke="#00112C" stroke-linecap="round" stroke-linejoin="round"/>
<path d="M192.188 122.348C192.188 122.348 188.512 128.358 189.165 132.949" stroke="#00112C" stroke-linecap="round" stroke-linejoin="round"/>
<path d="M122.405 140.65L117.161 162.723L111.917 162.906C111.917 162.906 117.161 155.815 122.405 140.65Z" fill="#00112C" stroke="#00112C" stroke-linecap="round" stroke-linejoin="round"/>
<path d="M135.48 71.8249L129.688 93.3668C129.688 93.3668 108.033 124.97 144.374 116.668C157.031 113.776 147.702 102.365 148.19 94.6212C148.756 85.6142 150.681 81.3633 150.681 81.3633L135.489 71.8249H135.48Z" fill="#EF9B75" stroke="#00112C" stroke-linecap="round" stroke-linejoin="round"/>
<path d="M172.43 38.6718C172.43 38.6718 181.76 71.6423 168.092 83.219C154.425 94.7957 134.8 87.8618 128.868 64.4036C125.479 51.015 149.904 22.3912 172.43 38.6718Z" fill="#EF9B75" stroke="#00112C" stroke-linecap="round" stroke-linejoin="round"/>
<path d="M156.741 75.7886C158.605 75.9019 160.417 76.5378 162.046 77.4524C161.898 79.0552 161.018 80.6319 159.598 81.3897C157.943 82.1562 154.389 82.2695 152.508 80.4054C151.759 79.665 150.809 77.9663 151.271 77.0256C151.602 76.3548 154.494 75.6493 156.741 75.7799V75.7886Z" fill="#D36244"/>
<path d="M149.233 76.0325C153.563 79.0291 159.547 79.421 164.225 77.0081" stroke="#00112C" stroke-linecap="round" stroke-linejoin="round"/>
<path d="M153.414 18.9243C160.958 19.264 168.38 21.2327 175.444 23.8982C176.202 24.1857 177.117 24.839 176.803 25.5794C173.667 24.386 170.235 23.1839 167.03 24.1682C173.911 24.4557 180.322 29.5864 182.108 36.2415C182.256 36.7815 182.369 37.3652 182.186 37.8965C182.03 38.3408 181.69 38.6892 181.35 39.0202C177.509 42.6613 172.526 44.9871 167.352 46.1283C162.178 47.2694 156.803 47.2694 151.542 46.6857L147.752 39.7781C145.61 39.6909 145.549 46.2415 145.296 47.731C144.146 54.63 142.77 61.6074 140.374 68.2015C139.425 70.8235 138.327 73.6371 136.489 75.7799C135.662 76.7468 134.66 77.6963 133.327 77.8096C132.265 77.8967 131.28 77.5569 130.165 77.705C128.606 77.9141 127.047 78.3409 125.505 78.6632C125.061 78.7503 124.582 78.8461 124.164 78.6632C123.754 78.4977 123.484 78.1144 123.24 77.7486C120.496 73.5761 118.928 68.6283 118.78 63.637C117.848 66.4593 117.413 69.4384 117.5 72.4088C117.543 73.8374 117.691 75.3531 117.047 76.6249C115.714 75.0569 115.2 72.9663 114.869 70.928C113.423 62.0168 113.885 49.9523 116.359 41.2763C118.493 33.785 122.587 17.5045 153.423 18.9069L153.414 18.9243Z" fill="#00112C" stroke="#00112C" stroke-linecap="round" stroke-linejoin="round"/>
<path d="M176.795 75.0309C176.943 75.632 178.206 80.8062 181.978 83.0101C184.286 84.3602 188.746 114.143 193.38 125.737C195.95 132.148 212.77 131.268 217.831 121.947C217.849 121.921 197.187 83.193 196.786 79.3254C196.385 75.4578 195.61 54.5082 195.61 54.5082C195.61 54.5082 174.051 64.2382 176.786 75.0222L176.795 75.0309Z" fill="#EF9B75" stroke="#00112C" stroke-linecap="round" stroke-linejoin="round"/>
<path d="M171.75 51.4332C165.418 51.4332 160.287 56.5638 160.287 62.8966C160.287 69.2294 165.418 74.3601 171.75 74.3601H199.155V51.4332H171.75Z" fill="#00112C" stroke="#00112C" stroke-linecap="round" stroke-linejoin="round"/>
<path d="M199.155 74.3601C205.486 74.3601 210.619 69.2277 210.619 62.8966C210.619 56.5655 205.486 51.4332 199.155 51.4332C192.824 51.4332 187.692 56.5655 187.692 62.8966C187.692 69.2277 192.824 74.3601 199.155 74.3601Z" fill="#F3F6F9" stroke="#00112C" stroke-linecap="round" stroke-linejoin="round"/>
<path d="M175.096 48.2363C175.096 48.2363 166.925 48.4976 167.57 50.7537C168.214 53.0098 180.723 51.3548 180.723 51.3548C180.723 51.3548 180.723 48.576 175.096 48.2363Z" fill="#EF9B75" stroke="#00112C" stroke-linecap="round" stroke-linejoin="round"/>
<path d="M179.312 48.2363C179.312 48.2363 171.141 48.4976 171.786 50.7537C172.43 53.0098 184.939 51.3548 184.939 51.3548C184.939 51.3548 184.939 48.576 179.312 48.2363Z" fill="#EF9B75" stroke="#00112C" stroke-linecap="round" stroke-linejoin="round"/>
<path d="M183.537 48.2363C183.537 48.2363 175.366 48.4976 176.011 50.7537C176.656 53.0098 189.164 51.3548 189.164 51.3548C189.164 51.3548 189.164 48.576 183.537 48.2363Z" fill="#EF9B75" stroke="#00112C" stroke-linecap="round" stroke-linejoin="round"/>
<path d="M187.753 48.2363C187.753 48.2363 179.582 48.4976 180.227 50.7537C180.872 53.0098 193.38 51.3548 193.38 51.3548C193.38 51.3548 193.38 48.576 187.753 48.2363Z" fill="#EF9B75" stroke="#00112C" stroke-linecap="round" stroke-linejoin="round"/>
<path d="M144.347 51.4332C138.014 51.4332 132.883 56.5638 132.883 62.8966C132.883 69.2294 138.014 74.3601 144.347 74.3601H171.751V51.4332H144.347Z" fill="#00112C" stroke="#00112C" stroke-linecap="round" stroke-linejoin="round"/>
<path d="M171.75 74.3601C178.081 74.3601 183.214 69.2277 183.214 62.8966C183.214 56.5655 178.081 51.4332 171.75 51.4332C165.419 51.4332 160.287 56.5655 160.287 62.8966C160.287 69.2277 165.419 74.3601 171.75 74.3601Z" fill="#F3F6F9" stroke="#00112C" stroke-linecap="round" stroke-linejoin="round"/>
<path d="M146.933 81.4072C146.933 81.4072 152.081 76.3375 150.069 70.8932C148.057 65.449 145.54 60.2225 146.106 57.7834C146.672 55.3444 151.367 51.3287 151.367 51.3287C151.367 51.3287 150.122 47.9315 146.184 49.8653C146.184 49.8653 144.608 46.5116 140.479 49.2207C140.479 49.2207 137.743 46.2939 135.113 48.9245C135.113 48.9245 132.482 45.5447 129.86 49.1162C127.229 52.6789 124.79 53.2451 126.855 59.8131C128.919 66.381 133.797 71.8253 132.674 75.2051C131.55 78.5849 102.499 121.137 102.499 121.137L119.947 130.458C123.048 132.435 127.177 131.085 128.501 127.653C133.24 115.371 140.871 88.2191 143.109 85.3445C144.834 83.132 146.933 81.4072 146.933 81.4072Z" fill="#EF9B75" stroke="#00112C" stroke-linecap="round" stroke-linejoin="round"/>
<path d="M146.186 49.8738C146.186 49.8738 141.116 54.1944 139.992 56.0672L146.186 49.8738Z" fill="#EF9B75"/>
<path d="M146.186 49.8738C146.186 49.8738 141.116 54.1944 139.992 56.0672" stroke="#00112C" stroke-linecap="round" stroke-linejoin="round"/>
<path d="M135.106 48.9328C135.106 48.9328 131.534 52.6872 130.977 54.0025L135.106 48.9328Z" fill="#EF9B75"/>
<path d="M135.106 48.9328C135.106 48.9328 131.534 52.6872 130.977 54.0025" stroke="#00112C" stroke-linecap="round" stroke-linejoin="round"/>
<path d="M140.472 49.2292L135.106 54.7519" stroke="#00112C" stroke-linecap="round" stroke-linejoin="round"/>
<path d="M171.751 55.7623C175.689 55.7623 178.886 58.9591 178.886 62.8964" stroke="#00112C" stroke-linecap="round" stroke-linejoin="round"/>
<path d="M199.155 55.7623C203.092 55.7623 206.289 58.9591 206.289 62.8964" stroke="#00112C" stroke-linecap="round" stroke-linejoin="round"/>
<path d="M143.111 85.3529C143.111 85.3529 145.942 87.5742 148.921 88.0968L148.712 89.4383L141.917 87.7919C141.917 87.7919 142.579 86.0236 143.119 85.3529H143.111Z" fill="#00112C" stroke="#00112C" stroke-linecap="round" stroke-linejoin="round"/>
<path d="M121.446 142.722C122.482 139.343 125.374 137.592 126.463 135.902C127.552 134.212 126.463 132.513 126.463 132.513C126.463 132.513 131.298 131.242 129.425 129.517C127.752 127.975 108.58 118.837 104.503 116.904C104.067 116.695 103.545 116.843 103.275 117.243L94.3723 130.562" fill="#08903F"/>
<path d="M121.446 142.722C122.482 139.343 125.374 137.592 126.463 135.902C127.552 134.212 126.463 132.513 126.463 132.513C126.463 132.513 131.298 131.242 129.425 129.517C127.752 127.975 108.58 118.837 104.503 116.904C104.067 116.695 103.545 116.843 103.275 117.243L94.3723 130.562" stroke="#00112C" stroke-linecap="round" stroke-linejoin="round"/>
<path d="M143.625 189.134C144.626 182.313 147.266 175.885 151.247 170.388C146.673 169.082 141.438 169.805 136.334 173.481C134.574 174.744 133.041 176.312 131.769 178.08C128.842 182.148 127.292 186.686 126.604 191.373L143.625 189.134Z" fill="#0ABE53" stroke="#00112C" stroke-linecap="round" stroke-linejoin="round"/>
<path d="M241.692 178.603C236.84 174.752 230.437 173.272 224.244 173.298C218.05 173.324 211.953 174.735 205.916 176.146C209.244 170.292 205.655 160.658 200.176 156.747C194.697 152.827 187.484 152.217 180.794 152.958C177.649 153.306 174 154.369 170.132 155.85C162.336 158.829 155.89 163.977 151.247 170.38C157.832 172.252 163.015 178.324 164.409 185.789C165.559 191.956 164.862 198.307 165.184 204.578C165.507 210.85 167.109 217.496 171.778 221.686C176.543 225.963 184.139 226.695 189.636 223.411C195.132 220.118 198.068 213.071 196.543 206.861C197.876 213.228 202.057 221.19 206.752 225.693C211.796 230.537 218.686 233.725 225.672 233.298C232.65 232.871 239.496 228.376 241.7 221.73C243.904 215.084 240.498 206.8 233.904 204.474C239.941 205.859 246.814 201.016 248.19 194.97C249.557 188.925 246.561 182.435 241.7 178.585L241.692 178.603Z" fill="#85DFA9" stroke="#00112C" stroke-linecap="round" stroke-linejoin="round"/>
<path d="M151.247 170.388C164.365 167.984 178.416 169.857 189.94 176.573C201.465 183.289 210.463 194.221 214.836 206.826" stroke="#00112C" stroke-linecap="round" stroke-linejoin="round"/>
<path d="M108.477 184.717H118.451C118.878 182.278 119.139 179.822 119.087 177.348C118.973 171.73 117.066 165.893 112.797 162.235C108.529 158.576 101.621 157.792 97.3096 161.399C96.8741 161.764 96.4821 162.165 96.1162 162.592C99.1127 165.336 101.613 168.707 103.547 172.287C105.672 176.224 107.188 180.423 108.468 184.717H108.477Z" fill="#0ABE53" stroke="#00112C" stroke-linecap="round" stroke-linejoin="round"/>
<path d="M87.0208 157.061C80.4005 154.796 72.8657 155.71 66.7507 159.116C60.6444 162.514 55.9666 168.28 53.4753 174.813C47.2558 172.026 37.1425 173.785 32.5693 178.829C27.9874 183.873 27.0989 191.921 30.4787 197.836C23.1529 198.507 16.3411 205.702 16.3411 213.054C16.3411 220.406 22.2035 227.244 29.416 228.672C36.6286 230.101 44.4858 226.207 47.9962 219.744C52.4388 220.719 56.89 222.584 61.3412 221.686C65.7925 220.789 70.0869 218.341 72.4301 214.448C74.7733 210.554 74.7995 205.162 71.8639 201.695C75.627 203.759 80.7751 204.752 84.7734 203.193C88.7716 201.634 92.0121 198.245 93.3884 194.186C95.2177 188.785 93.7978 182.914 93.1271 177.252C92.526 172.157 92.8483 166.373 96.0975 162.601C93.4494 160.17 90.4093 158.228 87.0033 157.069L87.0208 157.061Z" fill="#08903F" stroke="#00112C" stroke-linecap="round" stroke-linejoin="round"/>
<path d="M95.4971 162.906C74.3995 164.961 55.1747 180.258 48.5283 200.275" stroke="#00112C" stroke-linecap="round" stroke-linejoin="round"/>
<path d="M107.048 157.313C120.166 161.085 134.339 161.198 147.51 157.583C152.963 156.085 158.912 158.001 161.891 162.81C163.964 166.155 165.114 170.136 164.992 173.89C164.757 181.32 159.322 188.289 152.179 190.336C155.558 196.886 156.22 206.19 153.146 212.888C150.071 219.596 143.398 224.631 136.055 225.319C128.712 226.007 121.02 222.104 117.632 215.554C112.388 222.331 107.814 228.219 95.3579 227.975C93.6854 227.941 91.9955 227.749 90.4101 227.218C85.3927 225.528 81.0983 221.468 79.7132 216.364C78.3021 211.164 80.262 205.066 84.7655 202.122C79.4519 198.785 76.5164 192.035 77.9014 185.92C79.2864 179.805 84.8004 174.848 91.0373 174.125C90.384 172.592 90.0879 170.963 90.0879 169.308C90.0879 160.693 98.7813 154.935 107.057 157.313H107.048Z" fill="#0ABE53" stroke="#00112C" stroke-linecap="round" stroke-linejoin="round"/>
<path d="M126.604 160.214C118.093 169.247 113.407 182.348 112.928 194.753" stroke="#00112C" stroke-linecap="round" stroke-linejoin="round"/>
<path d="M161.969 139.116L161.115 133.768C161.115 133.768 164.695 140.04 170.662 142.374L161.969 139.116Z" fill="#00112C" stroke="#00112C" stroke-linecap="round" stroke-linejoin="round"/>
<path d="M132.962 22.905C133.241 20.1437 132.727 17.3649 132.073 14.6646C131.002 10.2569 129.338 5.6837 125.758 2.89624C124.992 2.29519 124.103 1.78125 123.136 1.72027C122.169 1.6593 121.106 2.16453 120.793 3.08787C122.701 3.41889 124.234 5.24816 124.216 7.19068C119.983 4.88231 115.697 2.57393 111.037 1.34571C106.376 0.12619 101.237 0.073925 96.9165 2.19937C92.5959 4.32481 89.3206 8.92413 89.6604 13.7325C89.8868 16.9294 91.6464 19.8911 94.0332 22.0252C96.4287 24.1594 99.4078 25.5357 102.465 26.4852C97.3433 25.9451 92.3346 24.3336 87.8572 21.79C87.2823 22.365 87.3084 23.3406 87.7091 24.0461C88.1098 24.7517 88.798 25.2395 89.4862 25.6576C92.8572 27.7134 96.8032 28.8197 100.758 28.811C96.9775 29.4556 93.0663 29.3162 89.3468 28.3928C88.9896 29.2814 89.3555 30.3267 90.0088 31.0235C90.6621 31.7204 91.5593 32.1298 92.4391 32.4956C101.002 36.0322 110.732 36.6768 119.687 34.2988C125.723 32.696 132.274 29.8127 132.962 22.9137V22.905Z" fill="#00112C" stroke="#00112C" stroke-linecap="round" stroke-linejoin="round"/>
<path d="M22.0244 100.011C17.5732 97.7111 12.1812 97.3104 7.44247 98.9394C7.18115 99.0265 6.91111 99.131 6.71076 99.3226C6.30135 99.7146 6.28393 100.351 6.3362 100.908C6.64108 104.305 8.41809 107.432 10.7177 109.95C13.3658 112.842 16.8589 115.089 20.7439 115.664C24.1324 116.161 31.0488 115.037 31.1272 110.716C31.2056 106.396 25.2387 101.675 22.0331 100.02L22.0244 100.011Z" fill="#0ABE53" stroke="#00112C" stroke-linecap="round" stroke-linejoin="round"/>
<path d="M0.552549 165.246C1.98113 168.034 5.12574 169.654 8.24421 169.916C11.3627 170.177 14.4725 169.253 17.3557 168.017C19.9951 166.884 22.591 165.412 24.368 163.156C25.814 161.318 27.6607 156.692 25.5614 154.637C23.7495 152.868 18.4882 153.931 16.2843 154.393C13.0787 155.064 10.0038 156.37 7.29473 158.217C6.31912 158.879 -0.144318 163.888 0.552549 165.238V165.246Z" fill="#0ABE53" stroke="#00112C" stroke-linecap="round" stroke-linejoin="round"/>
<path d="M248.168 168.142C246.725 172.519 243.338 176.218 239.102 178.038C233.653 180.379 215.596 178.029 220.692 168.432C224.911 160.481 242.247 165.229 248.168 168.142Z" fill="#0ABE53" stroke="#00112C" stroke-linecap="round" stroke-linejoin="round"/>
<path d="M249.929 127.601C250.353 127.701 250.823 127.873 250.97 128.274C251.063 128.528 251.015 128.812 250.947 129.065C249.919 133.118 241.032 141.177 237.106 135.85C232.414 129.476 246.362 126.75 249.92 127.599L249.929 127.601Z" fill="#08903F" stroke="#00112C" stroke-linecap="round" stroke-linejoin="round"/>
</svg>
