<svg width="253" height="136" viewBox="0 0 253 136" fill="none" xmlns="http://www.w3.org/2000/svg">
<path d="M210.306 135.394H23.8439C18.1232 135.394 13.4824 130.748 13.4824 125.016H220.661C220.661 130.743 216.021 135.394 210.3 135.394H210.306Z" fill="#EEF0F3" stroke="#00112C" stroke-linecap="round" stroke-linejoin="round"/>
<path d="M148.148 135.394H23.8439C18.1232 135.394 13.4824 130.748 13.4824 125.016H158.509C158.509 130.743 153.869 135.394 148.148 135.394Z" fill="#EEF0F3" stroke="#00112C" stroke-linecap="round" stroke-linejoin="round"/>
<path d="M221.888 125.016H97.5841C91.8634 125.016 88.0439 120.37 89.0508 114.638L107.316 10.8782C108.322 5.15133 113.779 0.5 119.5 0.5H243.804C249.524 0.5 253.344 5.1457 252.337 10.8782L234.072 114.643C233.065 120.37 227.603 125.022 221.888 125.022V125.016Z" fill="#EEF0F3" stroke="#00112C" stroke-linecap="round" stroke-linejoin="round"/>
<path d="M216.712 125.016H92.4085C86.6877 125.016 82.8682 120.37 83.8751 114.638L102.134 10.8782C103.141 5.15133 108.598 0.5 114.318 0.5H238.622C244.343 0.5 248.163 5.1457 247.156 10.8782L228.891 114.643C227.884 120.37 222.422 125.022 216.707 125.022L216.712 125.016Z" fill="#00112C" stroke="#00112C" stroke-linecap="round" stroke-linejoin="round"/>
<path d="M217.619 119.83C220.471 119.83 223.21 117.504 223.711 114.643L241.976 10.8781C242.482 8.01748 240.57 5.69182 237.706 5.69182H113.402C110.55 5.69182 107.811 8.01748 107.31 10.8781L89.0455 114.643C88.5393 117.504 90.4518 119.83 93.315 119.83H217.619Z" fill="#EEF0F3" stroke="#00112C" stroke-linecap="round" stroke-linejoin="round"/>
<path d="M158.509 125.016H105.2C102.854 125.016 100.604 125.945 98.9506 127.612C97.2968 129.273 95.0411 130.208 92.7011 130.208H79.3133C76.9732 130.208 74.7175 129.279 73.0638 127.612C71.41 125.951 69.1543 125.016 66.8142 125.016H13.4824" stroke="#00112C" stroke-linecap="round" stroke-linejoin="round"/>
<path d="M0.5 135.394H252.5" stroke="#00112C" stroke-linecap="round" stroke-linejoin="round"/>
<path d="M178.243 71.2723C179.233 65.6693 174.924 60.5225 169.237 60.5225C163.123 60.5225 157.897 64.9148 156.834 70.9457L154.882 82.0166H187.243C181.556 82.0166 177.247 76.8753 178.237 71.2667L178.243 71.2723Z" fill="#6F7987" stroke="#00112C" stroke-linecap="round" stroke-linejoin="round"/>
<path d="M136.369 24.6857C136.718 22.6979 138.439 21.2563 140.453 21.2563H204.804C206.734 21.2563 208.202 23.0076 207.864 24.9053L206.677 31.6289H135.137L136.363 24.6801L136.369 24.6857Z" fill="#6F7987" stroke="#00112C" stroke-linecap="round" stroke-linejoin="round"/>
<path d="M206.683 31.6235L199.646 71.5934C198.588 77.6188 193.357 82.0167 187.242 82.0167C181.583 82.0167 177.28 76.9092 178.231 71.3288C179.187 65.7032 175.064 60.5169 169.366 60.5169H130.052L135.137 31.6179H206.683V31.6235Z" fill="#00112C" stroke="#00112C" stroke-linecap="round" stroke-linejoin="round"/>
<path d="M147.451 60.5225H97.708C91.5935 60.5225 86.3677 64.9148 85.3046 70.9457L80.8326 96.3535L79.4826 104.023C78.3238 110.6 74.6843 116.479 69.318 120.444L63.1247 125.016H136.758C142.872 125.016 148.092 114.689 149.161 108.658L154.893 82.0222L156.845 70.9514C157.902 64.926 163.134 60.5281 169.248 60.5281H147.457L147.451 60.5225Z" fill="#00112C" stroke="#00112C" stroke-linecap="round" stroke-linejoin="round"/>
<path d="M169.242 59.9648H99.254" stroke="#EEF0F3" stroke-linecap="round" stroke-linejoin="round"/>
<path d="M98.6072 77.0781L105.734 85.7388" stroke="#EEF0F3" stroke-linecap="round" stroke-linejoin="round"/>
<path d="M107.259 77.0781L97.083 85.7388" stroke="#EEF0F3" stroke-linecap="round" stroke-linejoin="round"/>
<path d="M122.357 77.0781L129.479 85.7388" stroke="#85DFA9" stroke-linecap="round" stroke-linejoin="round"/>
<path d="M131.002 77.0781L120.832 85.7388" stroke="#85DFA9" stroke-linecap="round" stroke-linejoin="round"/>
<path d="M91.5536 100.819L99.0463 94.4388L104.323 100.858" stroke="#EEF0F3" stroke-linecap="round" stroke-linejoin="round"/>
<path d="M104.334 100.819L111.827 94.4388L117.103 100.858" stroke="#EEF0F3" stroke-linecap="round" stroke-linejoin="round"/>
<path d="M117.108 100.819L124.606 94.4388L129.883 100.858" stroke="#EEF0F3" stroke-linecap="round" stroke-linejoin="round"/>
<path d="M142.377 39.7209L139.418 42.238L141.494 44.7495" stroke="#EEF0F3" stroke-linecap="round" stroke-linejoin="round"/>
<path d="M145.071 42.238H151.354" stroke="#EEF0F3" stroke-linecap="round" stroke-linejoin="round"/>
<path d="M154.498 42.238H173.342" stroke="#85DFA9" stroke-linecap="round" stroke-linejoin="round"/>
<path d="M194.082 53.5623L197.041 51.0452L194.965 48.5337" stroke="#EEF0F3" stroke-linecap="round" stroke-linejoin="round"/>
<path d="M137.235 51.0452H149.802" stroke="#EEF0F3" stroke-linecap="round" stroke-linejoin="round"/>
<path d="M152.946 51.0452H162.374" stroke="#85DFA9" stroke-linecap="round" stroke-linejoin="round"/>
<path d="M198.667 42.238H179.823" stroke="#0ABF53" stroke-linecap="round" stroke-linejoin="round"/>
<path d="M187.699 51.0452H178.271" stroke="#EEF0F3" stroke-linecap="round" stroke-linejoin="round"/>
<path d="M174.789 51.0452H165.361" stroke="#0ABF53" stroke-linecap="round" stroke-linejoin="round"/>
<path d="M188.88 53.5622L192.694 48.528" stroke="#EEF0F3" stroke-linecap="round" stroke-linejoin="round"/>
<path d="M63.1243 125.022H62.8093C57.8986 125.022 53.916 121.035 53.916 116.119H126.289C126.289 121.035 130.271 125.022 135.182 125.022H136.757H63.1243Z" fill="#6F7987" stroke="#00112C" stroke-linecap="round" stroke-linejoin="round"/>
<path d="M74.6555 45.8589V52.819" stroke="#00112C" stroke-linecap="round" stroke-linejoin="round"/>
<path d="M59.8955 53.4835L64.8119 58.4052" stroke="#00112C" stroke-linecap="round" stroke-linejoin="round"/>
<path d="M52.2786 68.2596H59.2312" stroke="#00112C" stroke-linecap="round" stroke-linejoin="round"/>
</svg>
