<svg width="223" height="169" viewBox="0 0 223 169" fill="none" xmlns="http://www.w3.org/2000/svg">
<path d="M36.5723 112.156C37.2445 112.059 37.6581 111.48 37.6064 110.853L36.7275 102.213L38.8473 108.777C39.0024 109.356 39.6229 109.646 40.2433 109.501C40.7604 109.356 41.1223 108.825 41.0189 108.343L39.6746 101.537L42.57 96.6625L36.7275 91.1602L29.127 100.282L34.0905 104.868L35.0212 111.142C35.1763 111.818 35.8485 112.252 36.5723 112.156Z" fill="#EAB1A0" stroke="#00112C" stroke-width="0.647287" stroke-miterlimit="10" stroke-linecap="round" stroke-linejoin="round"/>
<path d="M31.6602 103.564C31.9704 103.95 32.9011 110.176 33.2113 112.59C33.263 113.121 33.78 113.507 34.3488 113.507H34.6073C35.2794 113.507 35.7965 112.976 35.7448 112.348L34.9692 103.178" fill="#EAB1A0"/>
<path d="M31.6602 103.564C31.9704 103.95 32.9011 110.176 33.2113 112.59C33.263 113.121 33.78 113.507 34.3488 113.507H34.6073C35.2794 113.507 35.7965 112.976 35.7448 112.348L34.9692 103.178" stroke="#00112C" stroke-width="0.647287" stroke-miterlimit="10" stroke-linecap="round" stroke-linejoin="round"/>
<path d="M30.418 99.2695V112.446C30.418 113.025 30.935 113.508 31.5555 113.508C32.1242 113.508 32.6412 113.122 32.693 112.543L33.8304 103.179" fill="#EAB1A0"/>
<path d="M30.418 99.2695V112.446C30.418 113.025 30.935 113.508 31.5555 113.508C32.1242 113.508 32.6412 113.122 32.693 112.543L33.8304 103.179" stroke="#00112C" stroke-width="0.647287" stroke-miterlimit="10" stroke-linecap="round" stroke-linejoin="round"/>
<path d="M35.7959 92.0293C35.7959 92.0293 29.3329 96.8076 29.1778 98.2073C29.0227 99.607 28.2988 108.488 28.2988 108.488C29.7982 108.488 31.1426 107.523 31.5045 106.171C32.0732 104.096 32.7454 101.345 32.5903 101.103C32.3835 100.765 37.5022 100.428 38.2777 97.3385" fill="#EAB1A0"/>
<path d="M35.7959 92.0293C35.7959 92.0293 29.3329 96.8076 29.1778 98.2073C29.0227 99.607 28.2988 108.488 28.2988 108.488C29.7982 108.488 31.1426 107.523 31.5045 106.171C32.0732 104.096 32.7454 101.345 32.5903 101.103C32.3835 100.765 37.5022 100.428 38.2777 97.3385" stroke="#00112C" stroke-width="0.647287" stroke-miterlimit="10" stroke-linecap="round" stroke-linejoin="round"/>
<path d="M95.2561 46.707C95.2561 46.707 78.0387 52.9816 70.4899 59.401C62.9411 65.8203 34.4004 90.629 34.4004 90.629L45.6202 101.682C45.6202 101.682 80.0034 76.825 83.571 74.2669C87.0869 71.7088 95.2561 46.707 95.2561 46.707Z" fill="#3300C2" stroke="#00112C" stroke-width="0.647287" stroke-miterlimit="10" stroke-linecap="round" stroke-linejoin="round"/>
<path d="M45.6202 101.683L34.4004 90.6301L64.1819 88.2168L45.6202 101.683Z" fill="#00112C" stroke="#00112C" stroke-width="0.647287" stroke-miterlimit="10" stroke-linecap="round" stroke-linejoin="round"/>
<path d="M186.411 90.3887H179.275V115.68H186.411V90.3887Z" fill="#00112C" stroke="#00112C" stroke-width="0.647287" stroke-miterlimit="10" stroke-linecap="round" stroke-linejoin="round"/>
<path d="M215.573 66.6895H208.438V91.9808H215.573V66.6895Z" fill="#00112C" stroke="#00112C" stroke-width="0.647287" stroke-miterlimit="10" stroke-linecap="round" stroke-linejoin="round"/>
<path d="M173.743 167.759H166.711L174.984 123.789H182.067L173.743 167.759Z" fill="#00112C" stroke="#00112C" stroke-width="0.647287" stroke-miterlimit="10" stroke-linecap="round" stroke-linejoin="round"/>
<path d="M26.3345 167.759H19.3027L27.5754 123.789H34.6071L26.3345 167.759Z" fill="#00112C" stroke="#00112C" stroke-width="0.647287" stroke-miterlimit="10" stroke-linecap="round" stroke-linejoin="round"/>
<path d="M209.213 167.759H202.181L193.908 123.789H200.94L209.213 167.759Z" fill="#00112C" stroke="#00112C" stroke-width="0.647287" stroke-miterlimit="10" stroke-linecap="round" stroke-linejoin="round"/>
<path d="M67.9575 91.1133H60.9258V116.018H67.9575V91.1133Z" fill="#00112C" stroke="#00112C" stroke-width="0.647287" stroke-miterlimit="10" stroke-linecap="round" stroke-linejoin="round"/>
<path d="M208.386 66.6895H39.0547V91.9808H208.386V66.6895Z" fill="#F3F6F9" stroke="#00112C" stroke-width="0.647287" stroke-miterlimit="10" stroke-linecap="round" stroke-linejoin="round"/>
<path d="M208.412 123.423V115.846L38.8744 115.846V123.423L208.412 123.423Z" fill="#00112C" stroke="#00112C" stroke-width="0.647287" stroke-miterlimit="10" stroke-linecap="round" stroke-linejoin="round"/>
<path d="M193.721 123.431V115.854L15.3416 115.854V123.431L193.721 123.431Z" fill="#F3F6F9" stroke="#00112C" stroke-width="0.647287" stroke-miterlimit="10" stroke-linecap="round" stroke-linejoin="round"/>
<path d="M77.4186 167.759H70.3869L62.0625 123.789H69.0943L77.4186 167.759Z" fill="#00112C" stroke="#00112C" stroke-width="0.647287" stroke-miterlimit="10" stroke-linecap="round" stroke-linejoin="round"/>
<path d="M42.2081 150.384L41.3809 153.376H57.6159L58.3398 150.287L42.2081 150.384Z" fill="#00112C" stroke="#00112C" stroke-width="0.647287" stroke-miterlimit="10" stroke-linecap="round" stroke-linejoin="round"/>
<path d="M80.1072 150.287L81.5032 153.376H96.6008L95.5667 150.336L80.1072 150.287Z" fill="#00112C" stroke="#00112C" stroke-width="0.647287" stroke-miterlimit="10" stroke-linecap="round" stroke-linejoin="round"/>
<path d="M97.8409 115.873L69.3519 116.018L61.6997 150.721H38.6914L48.1533 110.13C50.3765 103.179 57.0981 98.3046 64.8537 98.015L118.936 97.6289L118.367 100.235C116.351 109.309 107.768 115.825 97.8409 115.873Z" fill="#00112C" stroke="#00112C" stroke-width="0.647287" stroke-miterlimit="10" stroke-linecap="round" stroke-linejoin="round"/>
<path d="M110.665 115.873H85.5368L98.8765 150.335L73.9551 150.239L62.787 116.983C59.7882 107.958 66.3546 98.3528 76.4369 97.5805C76.6954 97.5805 76.9022 97.5323 77.1607 97.5323L131.709 96.2773L131.14 100.187C129.175 109.309 120.592 115.825 110.665 115.873Z" fill="#00112C" stroke="#00112C" stroke-width="0.647287" stroke-miterlimit="10" stroke-linecap="round" stroke-linejoin="round"/>
<path d="M57.6163 153.375H41.3812L40.6056 156.078L23.7501 160.277C21.7336 161.049 20.0791 162.449 19.1484 164.187H54.9794L57.6163 153.375Z" fill="#F3F6F9" stroke="#00112C" stroke-width="0.647287" stroke-miterlimit="10" stroke-linecap="round" stroke-linejoin="round"/>
<path d="M96.6009 153.375H81.5033L82.7959 156.271L67.6466 160.229C65.6301 161.001 63.9756 162.401 63.0449 164.138H100.324L96.6009 153.375Z" fill="#F3F6F9" stroke="#00112C" stroke-width="0.647287" stroke-miterlimit="10" stroke-linecap="round" stroke-linejoin="round"/>
<path d="M54.0487 168.001L54.9793 164.188H19.1484C18.5279 165.346 18.166 166.649 18.166 168.001H54.0487Z" fill="white" stroke="#00112C" stroke-width="0.647287" stroke-miterlimit="10" stroke-linecap="round" stroke-linejoin="round"/>
<path d="M101.667 168.001L100.374 164.188H63.0957C62.4752 165.346 62.1133 166.649 62.1133 168.001H101.667Z" fill="white" stroke="#00112C" stroke-width="0.647287" stroke-miterlimit="10" stroke-linecap="round" stroke-linejoin="round"/>
<path d="M86.8811 59.6439C87.1914 79.626 81.5039 97.3396 81.5039 97.3396L131.76 97.1948C131.76 97.1948 136.465 78.4676 133.828 66.1598C131.192 53.852 117.593 44.4401 111.337 43.8609C105.081 43.2818 90.7072 48.5427 90.7072 48.5427" fill="#3300C2"/>
<path d="M86.8811 59.6439C87.1914 79.626 81.5039 97.3396 81.5039 97.3396L131.76 97.1948C131.76 97.1948 136.465 78.4676 133.828 66.1598C131.192 53.852 117.593 44.4401 111.337 43.8609C105.081 43.2818 90.7072 48.5427 90.7072 48.5427" stroke="#00112C" stroke-width="0.647287" stroke-miterlimit="10" stroke-linecap="round" stroke-linejoin="round"/>
<path d="M96.7051 47.1429C96.7051 47.1429 97.3255 52.5969 98.6181 56.1686C99.9107 59.7402 100.686 63.3602 100.686 63.3602C100.686 63.3602 107.46 45.9362 108.959 43.8125C108.959 43.8125 100.997 50.3284 96.7051 47.1429Z" fill="white" stroke="#00112C" stroke-width="0.647287" stroke-miterlimit="10" stroke-linecap="round" stroke-linejoin="round"/>
<path d="M105.804 38.3086L108.906 43.8109C108.906 43.8109 104.925 50.6164 100.271 50.5199C95.618 50.4233 96.7555 44.8728 96.7555 44.8728L105.804 38.3086Z" fill="#EAB1A0" stroke="#00112C" stroke-width="0.647287" stroke-miterlimit="10" stroke-linecap="round" stroke-linejoin="round"/>
<path d="M101.824 44.7285L97.7392 49.5551L96.7051 47.1418L101.824 44.7285Z" fill="#00112C" stroke="#00112C" stroke-width="0.647287" stroke-miterlimit="10" stroke-linecap="round" stroke-linejoin="round"/>
<path d="M96.9117 83.1006H85.7436L82.3828 65.2422H93.4992L96.9117 83.1006Z" fill="#00112C" stroke="#00112C" stroke-width="0.647287" stroke-miterlimit="10" stroke-linecap="round" stroke-linejoin="round"/>
<path d="M101.617 82.5701C100.635 81.0256 99.3419 79.6741 98.4113 78.0814C97.1704 76.0059 96.6533 73.5926 96.1363 71.2759C93.5511 70.5519 93.4994 75.2819 93.7062 77.2126C93.9647 79.1432 94.7403 80.9773 94.7403 80.9773C92.7238 80.5912 84.3477 76.2955 84.3477 76.2955C84.5546 76.2955 82.9 78.564 83.6239 79.5776C83.9341 80.0603 84.6063 80.929 84.6063 80.929C84.6063 80.929 83.9341 82.2322 83.8824 82.9562C83.779 84.1146 85.0199 85.1282 85.0199 85.1282C85.0199 85.1282 85.0199 86.914 85.1233 87.3967C85.3301 88.1689 86.6227 88.8929 86.6227 88.8929C86.6227 88.8929 86.5193 90.3409 87.2949 90.727C87.967 91.0166 98.463 91.9337 103.065 92.1267C103.168 90.4857 103.582 88.6516 103.427 87.0105C103.375 85.5626 102.392 83.8733 101.617 82.5701Z" fill="#EAB1A0" stroke="#00112C" stroke-width="0.647287" stroke-miterlimit="10" stroke-linecap="round" stroke-linejoin="round"/>
<path d="M111.698 21.8992C112.06 22.7197 111.543 23.685 110.768 24.2642C109.992 24.7951 109.01 25.0365 108.079 25.2295C109.32 24.9399 110.664 25.0847 111.854 25.5191C112.267 25.6639 112.681 25.9053 112.888 26.2431C113.198 26.7258 113.043 27.3532 112.733 27.7876C112.422 28.222 111.905 28.5599 111.388 28.8012C109.992 29.5252 108.441 29.9596 106.89 30.1044C107.821 30.0079 108.441 31.2145 108.027 31.9868C107.614 32.759 106.683 33.1934 105.752 33.3865C104.253 33.7726 102.547 33.8209 101.254 33.0003C100.634 32.6142 100.168 32.0833 99.7548 31.5041C98.3071 29.3321 98.2554 26.3879 99.5997 24.1194C100.789 22.1405 103.012 20.7891 105.339 20.2581C107.045 19.9685 110.871 19.9685 111.698 21.8992Z" fill="#00112C" stroke="#00112C" stroke-width="0.647287" stroke-miterlimit="10" stroke-linecap="round" stroke-linejoin="round"/>
<path d="M68.6807 25.0368C69.1977 26.6778 71.6278 27.0157 73.334 26.3399C72.1448 26.533 70.8522 26.7261 69.9733 27.5466C69.0943 28.3671 68.8875 29.8633 69.8698 30.5391C70.2318 30.7804 70.6971 30.8769 71.1625 30.8769C72.7653 30.9735 74.4198 30.6356 75.8158 29.9116C74.7817 30.5391 73.8511 31.794 74.4715 32.8076C75.092 33.7729 76.6948 33.6764 77.7289 33.0972C78.763 32.518 79.6419 31.6492 80.7794 31.3113C80.1073 31.6975 79.4351 32.1318 79.1766 32.7593C78.8664 33.435 79.1249 34.3521 79.8487 34.5451C80.3141 34.6417 80.7794 34.4969 81.1931 34.2555C82.3305 33.6764 83.3646 32.9524 84.2436 32.0353C83.2095 32.2766 83.3646 33.8694 84.2953 34.2555C85.226 34.6899 86.3635 34.2555 87.2424 33.7246C88.4833 32.9524 89.4657 31.8423 90.1379 30.6356C89.7759 31.1183 90.1896 31.8423 90.7066 32.1801C91.689 32.8076 93.085 32.8558 94.2225 32.4697C95.36 32.0836 96.3424 31.3596 97.2213 30.5873C98.0486 29.8633 98.8241 29.0911 99.2378 28.0775C99.7548 26.6778 99.3929 25.085 98.5139 23.8784C97.635 22.6717 96.3423 21.7547 94.9463 21.0307C90.5515 18.7139 85.1226 18.0865 80.2624 19.3414C78.763 17.459 75.9709 16.6385 73.5408 17.3142C72.7653 17.5555 71.9897 17.9899 71.6795 18.6657C71.1625 19.8723 72.2482 20.9824 73.2823 21.5133C71.3693 21.5616 67.8534 22.4787 68.6807 25.0368Z" fill="#00112C" stroke="#00112C" stroke-width="0.647287" stroke-miterlimit="10" stroke-linecap="round" stroke-linejoin="round"/>
<path d="M80.5733 27.7391C81.3489 26.9668 91.1727 20.9336 91.1727 20.9336L101.41 24.6983L106.167 33.8206C106.167 33.8206 106.167 33.8689 106.167 34.0136C107.098 41.3501 103.065 44.5356 97.4288 47.1902C92.3101 49.6035 81.4523 45.5975 80.5216 27.8356C80.5733 27.7874 80.5733 27.7391 80.5733 27.7391Z" fill="#EAB1A0" stroke="#00112C" stroke-width="0.647287" stroke-miterlimit="10" stroke-linecap="round" stroke-linejoin="round"/>
<path d="M70.2837 17.2654C70.0252 16.4449 69.9735 15.4795 70.5422 14.8521C70.9558 14.3694 71.7314 14.1764 72.4036 14.2729C73.0757 14.3694 73.6962 14.659 74.2649 15.0451C73.4376 14.2246 74.0064 12.7284 75.1439 12.3423C76.2297 11.9561 77.5223 12.4388 78.3495 13.2593C78.7632 13.6937 79.2802 17.555 79.849 17.6998C80.366 17.8446 80.883 17.6515 81.3484 17.4584C83.7268 16.6379 86.2086 16.0105 88.7421 15.6726C90.6034 15.4313 92.4648 15.2865 94.3261 15.5278C96.446 15.8174 98.4624 16.5897 100.479 17.3619V17.3136C103.943 17.555 107.924 27.9321 106.89 28.1735C106.011 28.3665 107.149 28.1735 106.787 28.3183C104.667 29.0423 100.427 27.6425 99.238 27.1599C98.0488 26.6772 97.0664 25.905 96.084 25.0845C94.2744 23.733 92.1545 22.8642 89.9313 22.5264L88.4835 22.285C86.6739 23.009 84.6574 23.2504 82.6927 23.009C81.9688 22.9125 81.245 22.7194 80.7796 22.1885C80.4177 21.7541 80.4177 20.9819 80.883 20.6923C79.9007 21.1749 78.7632 21.4162 77.6257 21.4162C76.8501 21.4162 75.9712 21.3197 75.4024 20.7405C74.8337 20.1613 74.9371 19.1477 75.6609 18.8582C74.3683 19.196 72.9206 19.5821 71.7314 18.9064C70.9559 18.4238 70.5422 18.1824 70.2837 17.2654Z" fill="#00112C" stroke="#00112C" stroke-width="0.647287" stroke-miterlimit="10" stroke-linecap="round" stroke-linejoin="round"/>
<path d="M100.013 27.8365C99.444 26.1472 100.685 23.5408 102.443 23.203C105.028 22.7203 106.372 25.2301 106.889 27.209C107.406 28.9949 107.458 31.022 106.683 32.7596C106.424 33.2905 106.062 33.8215 105.545 34.1593" fill="#EAB1A0"/>
<path d="M100.013 27.8365C99.444 26.1472 100.685 23.5408 102.443 23.203C105.028 22.7203 106.372 25.2301 106.889 27.209C107.406 28.9949 107.458 31.022 106.683 32.7596C106.424 33.2905 106.062 33.8215 105.545 34.1593" stroke="#00112C" stroke-width="0.647287" stroke-miterlimit="10" stroke-linecap="round" stroke-linejoin="round"/>
<path d="M96.8079 7.66069C98.7783 7.66069 100.376 6.16965 100.376 4.33035C100.376 2.49105 98.7783 1 96.8079 1C94.8376 1 93.2404 2.49105 93.2404 4.33035C93.2404 6.16965 94.8376 7.66069 96.8079 7.66069Z" fill="#F3F6F9" stroke="#00112C" stroke-width="0.647287" stroke-miterlimit="10" stroke-linecap="round" stroke-linejoin="round"/>
<path d="M107.356 22.1399C107.356 21.9951 107.408 18.7613 105.856 14.6104C104.254 10.5561 101.048 5.48818 94.3264 4.23327C86.0538 2.97836 81.1419 8.2876 78.8669 11.4732C76.5919 14.707 76.4885 16.8307 76.5402 16.8307C88.6907 16.3963 97.0667 17.8925 107.356 22.1399Z" fill="#F3F6F9" stroke="#00112C" stroke-width="0.647287" stroke-miterlimit="10" stroke-linecap="round" stroke-linejoin="round"/>
<path d="M93.2926 17.8939C93.9648 17.0252 93.6545 15.6737 92.6721 15.2393C91.6381 14.8049 90.2938 15.4324 90.0352 16.446C90.6557 15.5289 90.3972 14.1775 89.5182 13.5017C88.6392 12.7778 87.1915 12.7778 86.2608 13.4535C85.3302 14.1292 84.9682 15.3841 85.3819 16.3977C85.3819 15.6737 85.3819 14.9015 85.0716 14.274C84.7614 13.6465 84.141 13.0191 83.3654 12.9708C82.9001 12.9708 82.4347 13.1639 82.0211 13.4535C81.0904 14.1775 80.6251 15.4324 80.9353 16.5425C80.6768 15.4806 80.47 14.3705 79.7978 13.4535C79.1257 12.5364 77.9882 11.8607 76.799 12.102C75.7132 12.2951 74.8859 13.3569 74.8859 14.3705C74.8342 15.4324 75.4547 16.3977 76.3337 17.0734C76.4371 17.0734 90.8625 21.0312 93.2926 17.8939Z" fill="#00112C" stroke="#00112C" stroke-width="0.647287" stroke-miterlimit="10" stroke-linecap="round" stroke-linejoin="round"/>
<path d="M128.036 54.8164C128.036 54.8164 150.062 81.3144 146.856 92.6086C144.995 99.2693 99.8574 97.4835 99.8574 97.4835L102.391 83.1968L126.071 81.7005L116.403 69.1996" fill="#3300C2"/>
<path d="M128.036 54.8164C128.036 54.8164 150.062 81.3144 146.856 92.6086C144.995 99.2693 99.8574 97.4835 99.8574 97.4835L102.391 83.1968L126.071 81.7005L116.403 69.1996" stroke="#00112C" stroke-width="0.647287" stroke-miterlimit="10" stroke-linecap="round" stroke-linejoin="round"/>
<path d="M57.3575 1.43555H1V30.8295H34.194L48.878 45.0196L48.6712 30.8295H57.3575V1.43555Z" fill="white" stroke="#00112C" stroke-width="0.647287" stroke-miterlimit="10" stroke-linecap="round" stroke-linejoin="round"/>
<path d="M2.29297 168H221.725" stroke="#00112C" stroke-width="0.647287" stroke-miterlimit="10" stroke-linecap="round" stroke-linejoin="round"/>
<path d="M29.1797 26.292C35.4048 26.292 40.4512 21.5811 40.4512 15.77C40.4512 9.95889 35.4048 5.24805 29.1797 5.24805C22.9546 5.24805 17.9082 9.95889 17.9082 15.77C17.9082 21.5811 22.9546 26.292 29.1797 26.292Z" fill="#00112C" stroke="#00112C" stroke-width="0.647287" stroke-miterlimit="10" stroke-linecap="round" stroke-linejoin="round"/>
<path d="M25.1992 12.0527L33.1617 19.4857" stroke="white" stroke-width="0.647287" stroke-miterlimit="10" stroke-linecap="round" stroke-linejoin="round"/>
<path d="M33.1617 12.0527L25.1992 19.4857" stroke="white" stroke-width="0.647287" stroke-miterlimit="10" stroke-linecap="round" stroke-linejoin="round"/>
</svg>
