<svg width="153" height="83" viewBox="0 0 153 83" fill="none" xmlns="http://www.w3.org/2000/svg">
<path d="M127.049 81.8648H14.5805C11.1299 81.8648 8.33069 79.0626 8.33069 75.6049H133.296C133.296 79.0592 130.497 81.8648 127.046 81.8648H127.049Z" fill="#EEF0F3" stroke="#00112C" stroke-linecap="round" stroke-linejoin="round"/>
<path d="M89.5575 81.8648H14.5805C11.1299 81.8648 8.33069 79.0626 8.33069 75.6049H95.8073C95.8073 79.0592 93.0081 81.8648 89.5575 81.8648Z" fill="#EEF0F3" stroke="#00112C" stroke-linecap="round" stroke-linejoin="round"/>
<path d="M134.035 75.6049H59.0584C55.6078 75.6049 53.304 72.8028 53.9113 69.345L64.9282 6.75988C65.5355 3.30557 68.8267 0.5 72.2773 0.5H147.254C150.705 0.5 153.009 3.30217 152.401 6.75988L141.385 69.3484C140.777 72.8028 137.483 75.6083 134.035 75.6083V75.6049Z" fill="#EEF0F3" stroke="#00112C" stroke-linecap="round" stroke-linejoin="round"/>
<path d="M130.913 75.6049H55.9364C52.4858 75.6049 50.182 72.8028 50.7893 69.345L61.8027 6.75988C62.4101 3.30557 65.7012 0.5 69.1518 0.5H144.129C147.579 0.5 149.883 3.30217 149.276 6.75988L138.259 69.3484C137.652 72.8028 134.357 75.6083 130.91 75.6083L130.913 75.6049Z" fill="#00112C" stroke="#00112C" stroke-linecap="round" stroke-linejoin="round"/>
<path d="M131.46 72.4768C133.18 72.4768 134.833 71.074 135.135 69.3486L146.151 6.76001C146.457 5.03456 145.303 3.63177 143.576 3.63177H68.5992C66.879 3.63177 65.2267 5.03456 64.9247 6.76001L53.9078 69.3486C53.6025 71.074 54.7561 72.4768 56.4831 72.4768H131.46Z" fill="#EEF0F3" stroke="#00112C" stroke-linecap="round" stroke-linejoin="round"/>
<path d="M95.8073 75.6049H63.6525C62.2376 75.6049 60.8804 76.1654 59.8829 77.1707C58.8854 78.1727 57.5248 78.7366 56.1134 78.7366H48.0382C46.6267 78.7366 45.2662 78.1761 44.2686 77.1707C43.2711 76.1688 41.9105 75.6049 40.4991 75.6049H8.33069" stroke="#00112C" stroke-linecap="round" stroke-linejoin="round"/>
<path d="M0.5 81.8648H152.5" stroke="#00112C" stroke-linecap="round" stroke-linejoin="round"/>
<path d="M107.71 43.1882C108.307 39.8086 105.708 36.7042 102.278 36.7042C98.5896 36.7042 95.4376 39.3535 94.7963 42.9912L93.619 49.6689H113.139C109.708 49.6689 107.109 46.5678 107.706 43.1848L107.71 43.1882Z" fill="#6F7987" stroke="#00112C" stroke-linecap="round" stroke-linejoin="round"/>
<path d="M82.4521 15.0883C82.6625 13.8894 83.7007 13.0198 84.9154 13.0198H123.731C124.894 13.0198 125.78 14.0762 125.576 15.2208L124.86 19.2763H81.7091L82.4488 15.0849L82.4521 15.0883Z" fill="#6F7987" stroke="#00112C" stroke-linecap="round" stroke-linejoin="round"/>
<path d="M124.864 19.2726L120.62 43.3815C119.982 47.0158 116.826 49.6685 113.138 49.6685C109.725 49.6685 107.129 46.5878 107.703 43.2218C108.279 39.8287 105.792 36.7004 102.355 36.7004H78.6422L81.7094 19.2692H124.864V19.2726Z" fill="#00112C" stroke="#00112C" stroke-linecap="round" stroke-linejoin="round"/>
<path d="M89.1372 36.7042H59.1334C55.4453 36.7042 52.2933 39.3535 51.652 42.9912L48.9546 58.3165L48.1403 62.9427C47.4414 66.9099 45.2462 70.4559 42.0093 72.8471L38.2737 75.6051H82.6872C86.3753 75.6051 89.5239 69.3758 90.1686 65.738L93.626 49.6723L94.8034 42.9946C95.4412 39.3603 98.5966 36.7076 102.285 36.7076H89.1405L89.1372 36.7042Z" fill="#00112C" stroke="#00112C" stroke-linecap="round" stroke-linejoin="round"/>
<path d="M102.28 36.3676H60.0656" stroke="#EEF0F3" stroke-linecap="round" stroke-linejoin="round"/>
<path d="M59.6763 46.69L63.9751 51.9139" stroke="#EEF0F3" stroke-linecap="round" stroke-linejoin="round"/>
<path d="M64.8943 46.69L58.7564 51.9139" stroke="#EEF0F3" stroke-linecap="round" stroke-linejoin="round"/>
<path d="M74.0017 46.69L78.2972 51.9139" stroke="#85DFA9" stroke-linecap="round" stroke-linejoin="round"/>
<path d="M79.2155 46.69L73.0811 51.9139" stroke="#85DFA9" stroke-linecap="round" stroke-linejoin="round"/>
<path d="M55.4211 61.0101L59.9405 57.1617L63.123 61.0338" stroke="#EEF0F3" stroke-linecap="round" stroke-linejoin="round"/>
<path d="M63.1301 61.0101L67.6495 57.1617L70.832 61.0338" stroke="#EEF0F3" stroke-linecap="round" stroke-linejoin="round"/>
<path d="M70.835 61.0101L75.3578 57.1617L78.5404 61.0338" stroke="#EEF0F3" stroke-linecap="round" stroke-linejoin="round"/>
<path d="M86.0764 24.1571L84.2918 25.6754L85.5437 27.1902" stroke="#EEF0F3" stroke-linecap="round" stroke-linejoin="round"/>
<path d="M87.7018 25.6752H91.4917" stroke="#EEF0F3" stroke-linecap="round" stroke-linejoin="round"/>
<path d="M93.3878 25.6752H104.754" stroke="#85DFA9" stroke-linecap="round" stroke-linejoin="round"/>
<path d="M117.264 32.506L119.048 30.9878L117.796 29.4729" stroke="#EEF0F3" stroke-linecap="round" stroke-linejoin="round"/>
<path d="M82.9753 30.9877H90.5551" stroke="#EEF0F3" stroke-linecap="round" stroke-linejoin="round"/>
<path d="M92.4518 30.9877H98.1383" stroke="#85DFA9" stroke-linecap="round" stroke-linejoin="round"/>
<path d="M120.029 25.6752H108.663" stroke="#0ABF53" stroke-linecap="round" stroke-linejoin="round"/>
<path d="M113.414 30.9877H107.727" stroke="#EEF0F3" stroke-linecap="round" stroke-linejoin="round"/>
<path d="M105.627 30.9877H99.9401" stroke="#0ABF53" stroke-linecap="round" stroke-linejoin="round"/>
<path d="M114.126 32.5058L116.426 29.4692" stroke="#EEF0F3" stroke-linecap="round" stroke-linejoin="round"/>
<path d="M38.2733 75.6084H38.0833C35.1213 75.6084 32.7191 73.2037 32.7191 70.2385H76.3725C76.3725 73.2037 78.7747 75.6084 81.7368 75.6084H82.6868H38.2733Z" fill="#6F7987" stroke="#00112C" stroke-linecap="round" stroke-linejoin="round"/>
<path d="M45.2284 27.8591V32.0573" stroke="#00112C" stroke-linecap="round" stroke-linejoin="round"/>
<path d="M36.3262 32.4583L39.2916 35.4269" stroke="#00112C" stroke-linecap="round" stroke-linejoin="round"/>
<path d="M31.7311 41.371H35.9248" stroke="#00112C" stroke-linecap="round" stroke-linejoin="round"/>
</svg>
