<svg width="202" height="106" viewBox="0 0 252 146" fill="none" xmlns="http://www.w3.org/2000/svg">
<path d="M177.634 145.366H8.55965C4.11269 145.366 0.507446 141.772 0.507446 137.343H185.682C185.682 141.772 182.077 145.366 177.63 145.366H177.634Z" fill="#EEF0F3" stroke="#00112C" stroke-linecap="round" stroke-linejoin="round"/>
<path d="M121.276 145.366H7.81104C3.77749 145.366 0.514893 142.11 0.514893 138.093V137.343H121.283V145.366H121.279H121.276Z" fill="#EEF0F3" stroke="#00112C" stroke-linecap="round" stroke-linejoin="round"/>
<path d="M185.928 137.343H77.2379C72.7909 137.343 69.8188 133.749 70.6084 129.315L83.3832 57.0921C84.1653 52.6589 88.4074 49.0648 92.8544 49.0648H201.54C205.987 49.0648 208.96 52.6589 208.17 57.0921L195.395 129.315C194.613 133.749 190.375 137.343 185.924 137.343H185.928Z" fill="#EEF0F3" stroke="#00112C" stroke-linecap="round" stroke-linejoin="round"/>
<path d="M181.902 137.343H73.2162C68.7692 137.343 65.8008 133.749 66.5867 129.315L79.3615 57.0921C80.1436 52.6589 84.3857 49.0648 88.8327 49.0648H197.519C201.966 49.0648 204.934 52.6589 204.148 57.0921L191.373 129.315C190.591 133.749 186.353 137.343 181.902 137.343Z" fill="#00112C" stroke="#00112C" stroke-linecap="round" stroke-linejoin="round"/>
<path d="M182.61 133.333C184.829 133.333 186.952 131.532 187.347 129.319L200.122 57.096C200.513 54.8831 199.027 53.0861 196.807 53.0861H88.1212C85.9014 53.0861 83.7785 54.8868 83.3837 57.096L70.6089 129.319C70.2179 131.536 71.7039 133.333 73.9237 133.333H182.61Z" fill="#0ABF53" stroke="#00112C" stroke-linecap="round" stroke-linejoin="round"/>
<path d="M177.634 145.366H129.324C124.877 145.366 121.272 141.772 121.272 137.343H185.678C185.678 141.772 182.073 145.366 177.626 145.366H177.63H177.634Z" fill="#EEF0F3" stroke="#00112C" stroke-linecap="round" stroke-linejoin="round"/>
<path d="M185.685 145.366H124.135C119.688 145.366 116.083 141.772 116.083 137.343H185.681V145.366H185.685Z" fill="#00112C" stroke="#00112C" stroke-linecap="round" stroke-linejoin="round"/>
<path d="M121.276 137.343H75.8153C73.994 137.343 72.2435 138.063 70.9549 139.348C69.6662 140.632 67.9158 141.356 66.0945 141.356H55.6848C53.8598 141.356 52.113 140.632 50.8244 139.348C49.5357 138.063 47.7853 137.343 45.964 137.343H0.5" stroke="#00112C" stroke-linecap="round" stroke-linejoin="round"/>
<path d="M7.81086 145.366H251.504" stroke="#00112C" stroke-linecap="round" stroke-linejoin="round"/>
<path d="M86.1175 122.272L94.8923 72.6716C95.2684 70.5516 97.1157 69.0033 99.2796 69.0033H184.26C186.472 69.0033 188.152 70.9971 187.764 73.1692L179.079 122.261H86.1138V122.269L86.1175 122.272Z" fill="#00112C" stroke="#00112C" stroke-linecap="round" stroke-linejoin="round"/>
<path d="M183.313 68.7315C183.697 66.5557 182.021 64.5656 179.809 64.5656H94.8285C92.6683 64.5656 90.8173 66.1102 90.4411 68.234L89.5212 73.4432H182.486L183.321 68.7315H183.317H183.313Z" fill="#EEF0F3" stroke="#00112C" stroke-linecap="round" stroke-linejoin="round"/>
<path d="M89.5169 73.4438L81.6659 117.828H174.631L182.479 73.4438H89.5169Z" fill="white" stroke="#00112C" stroke-linecap="round" stroke-linejoin="round"/>
<path d="M209.231 111.519H237.41C238.963 111.519 240.23 112.778 240.23 114.326V136.797C240.23 141.449 236.442 145.221 231.775 145.221H214.87C210.204 145.221 206.416 141.449 206.416 136.797V114.326C206.416 112.778 207.678 111.519 209.235 111.519H209.231Z" fill="#EEF0F3" stroke="#00112C" stroke-linecap="round" stroke-linejoin="round"/>
<path d="M235.004 116.721L240.226 121.967V114.326L235.004 116.721Z" fill="#00112C" stroke="#00112C" stroke-linecap="round" stroke-linejoin="round"/>
<path d="M235.004 130.767L240.226 136.013V128.372L235.004 130.767Z" fill="#00112C" stroke="#00112C" stroke-linecap="round" stroke-linejoin="round"/>
<path d="M234.594 115.73C234.594 116.509 235.224 117.137 236.002 117.137H244.457C245.235 117.137 245.865 117.764 245.865 118.54V124.158C245.865 124.934 245.235 125.562 244.457 125.562H236.002C235.224 125.562 234.594 126.189 234.594 126.965V129.776C234.594 130.552 235.224 131.179 236.002 131.179H245.865C248.978 131.179 251.5 128.662 251.5 125.562V117.137C251.5 114.033 248.974 111.519 245.865 111.519H234.594" fill="#EEF0F3"/>
<path d="M234.594 115.73C234.594 116.509 235.224 117.137 236.002 117.137H244.457C245.235 117.137 245.865 117.764 245.865 118.54V124.158C245.865 124.934 245.235 125.562 244.457 125.562H236.002C235.224 125.562 234.594 126.189 234.594 126.965V129.776C234.594 130.552 235.224 131.179 236.002 131.179H245.865C248.978 131.179 251.5 128.662 251.5 125.562V117.137C251.5 114.033 248.974 111.519 245.865 111.519H234.594" stroke="#00112C" stroke-linecap="round" stroke-linejoin="round"/>
<path d="M234.594 129.776C234.594 130.552 235.224 131.179 236.002 131.179H245.865C248.978 131.179 251.5 128.662 251.5 125.562V117.137C251.5 114.033 248.974 111.519 245.865 111.519H234.594" stroke="#00112C" stroke-linecap="round" stroke-linejoin="round"/>
<path d="M234.594 115.729C234.594 116.509 235.224 117.137 236.002 117.137H244.457C245.235 117.137 245.865 117.764 245.865 118.54V124.158C245.865 124.934 245.235 125.561 244.457 125.561H236.002" stroke="#00112C" stroke-linecap="round" stroke-linejoin="round"/>
<path d="M111.119 70.64C111.119 70.64 126.419 56.5681 130.181 57.1139C133.942 57.6597 128.009 64.5359 124.192 66.604C120.374 68.6721 107.019 76.2798 111.123 70.64H111.119Z" fill="#00112C" stroke="#00112C" stroke-linecap="round" stroke-linejoin="round"/>
<path d="M102.665 12.5745C102.36 12.6042 102.066 12.6933 101.798 12.8418C100.166 13.7403 94.1477 17.3715 89.9279 24.0696C85.0042 31.8815 81.1047 36.1365 79.2127 37.3877C77.3207 38.639 77.1606 41.3271 80.3934 43.0239L82.2779 44.0116C83.0712 44.4274 83.5331 45.2702 83.4697 46.1613C83.2761 48.8532 83.358 54.6861 87.1457 58.2357C92.1923 62.9622 99.6114 59.097 105.187 63.3335C110.762 67.5699 114.509 79.5662 112.531 83.3163C110.911 86.3831 127.932 73.6776 134.193 68.9399C135.31 68.0934 135.381 66.4486 134.345 65.5092C130.599 62.1156 123.753 54.8532 122.468 51.0029C120.859 46.1799 128.397 40.1724 127.045 31.6439C125.694 23.1154 120.271 10.9111 102.669 12.567L102.665 12.5745Z" fill="#E07146" stroke="#00112C" stroke-linecap="round" stroke-linejoin="round"/>
<path d="M92.3551 4.39116C77.5096 7.76618 88.2322 18.5002 98.6717 19.3244C102.076 19.5955 105.454 20.0373 108.865 20.2007C111.692 20.3381 118.113 28.9743 116.862 38.7095C116.56 41.0597 120.46 41.5832 120.709 43.9372C120.888 45.6377 120.527 47.3754 120.847 49.0536C121.245 51.1365 122.646 52.889 124.18 54.3593C124.538 54.7009 124.966 55.0574 125.462 55.0128C125.838 54.9794 126.151 54.7195 126.43 54.467C133.73 47.9137 138.095 38.2231 138.162 28.4285C138.18 25.8925 137.894 23.2638 136.624 21.0658C135.86 19.744 134.769 18.6338 133.573 17.6833C129.536 14.4754 116.772 12.5298 115.692 12.036C114.713 11.5905 113.953 10.7922 113.137 10.0979C106.135 4.14239 97.8114 3.14362 92.3589 4.38373L92.3551 4.39116Z" fill="#00112C" stroke="#00112C" stroke-linecap="round" stroke-linejoin="round"/>
<path d="M87.7928 50.9875C87.7928 50.9875 90.8878 48.9974 95.4316 48.8378" stroke="#00112C" stroke-linecap="round" stroke-linejoin="round"/>
<path d="M116.866 38.7131C116.866 38.7131 121.462 33.0138 127.577 37.0163C133.693 41.0188 124.922 51.0845 115.32 49.8258" fill="#E07146"/>
<path d="M116.866 38.7131C116.866 38.7131 121.462 33.0138 127.577 37.0163C133.693 41.0188 124.922 51.0845 115.32 49.8258" stroke="#00112C" stroke-linecap="round" stroke-linejoin="round"/>
<path d="M117.361 44.271C117.361 44.271 119.801 37.7957 125.972 39.3366" stroke="#00112C" stroke-linecap="round" stroke-linejoin="round"/>
<path d="M100.233 33.2181C100.136 35.2639 97.7933 35.8431 95.108 35.7168C92.4227 35.5906 90.4078 34.7998 90.5046 32.754C90.6014 30.7081 92.8584 29.1562 95.5437 29.2861C98.229 29.4161 100.33 31.176 100.229 33.2181H100.233Z" fill="white"/>
<mask id="mask0_5_359" style="mask-type:luminance" maskUnits="userSpaceOnUse" x="90" y="29" width="11" height="8">
<path d="M100.237 33.2187C100.335 31.1745 98.2378 29.4136 95.5525 29.2854C92.8671 29.1573 90.6107 30.7106 90.5125 32.7547C90.4144 34.7988 92.5118 36.5598 95.1971 36.6879C97.8824 36.816 100.139 35.2628 100.237 33.2187Z" fill="white"/>
</mask>
<g mask="url(#mask0_5_359)">
<path d="M97.1696 34.8588C98.8316 34.8588 100.179 33.5157 100.179 31.8588C100.179 30.2019 98.8316 28.8588 97.1696 28.8588C95.5075 28.8588 94.1602 30.2019 94.1602 31.8588C94.1602 33.5157 95.5075 34.8588 97.1696 34.8588Z" fill="#00112C" stroke="#00112C" stroke-linecap="round" stroke-linejoin="round"/>
</g>
<path d="M90.3886 32.7465C90.4855 30.7007 92.7946 29.1524 95.547 29.2824C98.2993 29.4123 100.448 31.176 100.351 33.2218C100.351 33.2218 102.281 34.2243 104.903 32.3604" stroke="#00112C" stroke-linecap="round" stroke-linejoin="round"/>
<path d="M103.886 26.6424C97.5097 23.2748 92.5674 24.4703 92.5674 24.4703C92.5674 24.4703 92.0684 25.2426 92.4743 25.6882C92.8803 26.1337 103.886 26.6424 103.886 26.6424Z" fill="#00112C" stroke="#00112C" stroke-linecap="round" stroke-linejoin="round"/>
<path d="M113.257 13.7328C110.185 7.9147 104.494 3.55205 98.0839 2.03347C97.678 1.93694 97.6184 1.37629 98.0057 1.21292C100.062 0.355242 102.441 0.318113 104.624 0.85277C107.212 1.48768 109.563 2.85773 111.741 4.39116C113.268 5.4679 114.754 6.6486 115.853 8.15604C117.376 10.2427 118.084 12.9085 117.79 15.4704" fill="#00112C"/>
<path d="M113.257 13.7328C110.185 7.9147 104.494 3.55205 98.0839 2.03347C97.678 1.93694 97.6184 1.37629 98.0057 1.21292C100.062 0.355242 102.441 0.318113 104.624 0.85277C107.212 1.48768 109.563 2.85773 111.741 4.39116C113.268 5.4679 114.754 6.6486 115.853 8.15604C117.376 10.2427 118.084 12.9085 117.79 15.4704" stroke="#00112C" stroke-linecap="round" stroke-linejoin="round"/>
<path d="M117.145 30.5522C115.286 34.1426 113.394 37.8184 112.828 41.8209C112.262 45.8234 113.253 50.2789 116.344 52.8927C117.212 53.6242 118.366 54.2108 119.454 53.8915C118.631 51.738 117.804 49.5623 117.495 47.2751C116.925 43.0313 118.288 38.5684 121.137 35.3642" fill="#00112C"/>
<path d="M117.145 30.5522C115.286 34.1426 113.394 37.8184 112.828 41.8209C112.262 45.8234 113.253 50.2789 116.344 52.8927C117.212 53.6242 118.366 54.2108 119.454 53.8915C118.631 51.738 117.804 49.5623 117.495 47.2751C116.925 43.0313 118.288 38.5684 121.137 35.3642" stroke="#00112C" stroke-linecap="round" stroke-linejoin="round"/>
<path d="M135.388 26.1967C135.783 29.7908 136.416 33.4554 138.244 36.5817C140.073 39.7079 143.321 42.2178 146.948 42.2735C147.578 42.281 148.304 42.1621 148.632 41.6238C148.911 41.1634 148.784 40.5693 148.617 40.0569C147.634 37.0458 145.481 34.4282 142.714 32.8725C147.284 36.1175 153.157 37.4802 158.691 36.5779C161.98 36.0433 165.436 34.4505 166.699 31.3799C167.392 29.6942 167.317 27.7635 166.781 26.0222C165.31 21.2437 159.935 17.8575 155.068 19.0494C157.034 18.5593 158.073 16.1013 157.414 14.1892C156.755 12.277 154.792 11.0184 152.785 10.7362C150.777 10.454 148.736 11.0035 146.87 11.7944C141.801 13.9367 137.548 17.9392 135.105 22.8588C134.501 24.0729 135.239 24.8452 135.388 26.193V26.1967Z" fill="#00112C" stroke="#00112C" stroke-linecap="round" stroke-linejoin="round"/>
<path d="M109.96 73.4433C115.055 70.5324 129.126 61.0831 129.603 58.1314C130.08 55.1796 133.875 58.8145 132.609 62.0299C132.609 62.0299 134.463 61.7329 135.499 63.1475C136.534 64.5621 136.445 65.9433 136.445 65.9433C136.445 65.9433 146.627 72.0919 154.337 71.2564C162.046 70.421 177.078 74.3901 180.702 83.4867L174.631 117.827H81.6659L86.1128 92.6947C86.1128 92.6947 92.2022 84.3258 98.1017 81.8456C104.001 79.3654 110.452 77.5498 109.96 76.8481C109.469 76.1463 106.24 75.5708 109.96 73.4433Z" fill="#08903F" stroke="#00112C" stroke-linecap="round" stroke-linejoin="round"/>
<path d="M114.937 75.1852C120.08 73.6481 124.56 70.5107 129.026 67.5367C129.551 67.1876 130.244 66.8312 130.773 67.1802C131.529 67.6777 131.004 68.8547 130.378 69.5082C126.333 73.7223 120.452 75.5491 115.555 78.7385C115.413 78.8313 115.272 78.9278 115.19 79.0726C114.951 79.4885 115.346 79.986 115.752 80.2422C117.19 81.163 119.03 81.1333 120.721 80.9105C125.376 80.2979 129.857 78.434 133.57 75.5714" stroke="#00112C" stroke-linecap="round" stroke-linejoin="round"/>
<path d="M159.54 75.0475C157.208 76.4881 155.547 78.8346 154.482 81.3557C153.417 83.8768 152.895 86.5872 152.419 89.2827" stroke="#00112C" stroke-linecap="round" stroke-linejoin="round"/>
<path d="M94.151 117.827C95.5737 113.331 94.0653 108.638 93.3912 103.974C93.3912 103.974 94.4713 115.822 90.9182 118.221L94.151 117.827Z" fill="#00112C" stroke="#00112C" stroke-linecap="round" stroke-linejoin="round"/>
<path d="M150.401 118.221C150.569 114.813 150.855 111.408 151.261 108.018" stroke="#00112C" stroke-linecap="round" stroke-linejoin="round"/>
<path d="M120.408 117.245L107.034 87.4338C106.378 86.2976 105.436 85.3508 104.296 84.6974L98.3557 81.2741C97.1825 80.5983 96.3184 79.4919 95.9572 78.1887L94.4078 72.5896C94.1061 71.498 93.2942 70.6218 92.229 70.2282L79.931 65.7245L80.296 64.7406C80.9254 63.04 82.6871 62.0376 84.4748 62.3643L104.508 66.0141C105.387 66.1774 106.278 65.8173 106.803 65.0933C107.238 64.4918 107.361 63.7121 107.123 63.0029L104.918 56.4868C104.296 54.6415 105.257 52.6402 107.089 51.9719L108.084 51.608L111.618 59.4831C111.928 60.1663 112.322 60.8123 112.795 61.3915L117.35 66.972C118.535 68.4275 119.309 70.1725 119.589 72.029L120.81 80.1788L140.922 99.8831" fill="#E07146"/>
<path d="M120.408 117.245L107.034 87.4338C106.378 86.2976 105.436 85.3508 104.296 84.6974L98.3557 81.2741C97.1825 80.5983 96.3184 79.4919 95.9572 78.1887L94.4078 72.5896C94.1061 71.498 93.2942 70.6218 92.229 70.2282L79.931 65.7245L80.296 64.7406C80.9254 63.04 82.6871 62.0376 84.4748 62.3643L104.508 66.0141C105.387 66.1774 106.278 65.8173 106.803 65.0933C107.238 64.4918 107.361 63.7121 107.123 63.0029L104.918 56.4868C104.296 54.6415 105.257 52.6402 107.089 51.9719L108.084 51.608L111.618 59.4831C111.928 60.1663 112.322 60.8123 112.795 61.3915L117.35 66.972C118.535 68.4275 119.309 70.1725 119.589 72.029L120.81 80.1788L140.922 99.8831" stroke="#00112C" stroke-linecap="round" stroke-linejoin="round"/>
<path d="M93.0142 70.6405L96.8764 72.1554L93.0142 70.6405Z" fill="#E07146"/>
<path d="M93.0142 70.6405L96.8764 72.1554" stroke="#00112C" stroke-linecap="round" stroke-linejoin="round"/>
<path d="M95.1298 74.409L98.262 75.6825L95.1298 74.409Z" fill="#E07146"/>
<path d="M95.1298 74.409L98.262 75.6825" stroke="#00112C" stroke-linecap="round" stroke-linejoin="round"/>
<path d="M95.8715 77.5464L98.8287 78.8645L95.8715 77.5464Z" fill="#E07146"/>
<path d="M95.8715 77.5464L98.8287 78.8645" stroke="#00112C" stroke-linecap="round" stroke-linejoin="round"/>
<path d="M117.596 110.981L133.57 99.7755L119.529 115.217L117.596 110.981Z" fill="#00112C" stroke="#00112C" stroke-linecap="round" stroke-linejoin="round"/>
<path d="M116.907 117.965C116.907 117.965 135.026 96.1552 138.162 96.7752C141.298 97.3953 142.702 99.081 142.84 100.265C142.978 101.45 167.198 117.976 167.198 117.976L116.907 117.965Z" fill="#08903F" stroke="#00112C" stroke-linecap="round" stroke-linejoin="round"/>
</svg>
