<svg width="152" height="153" viewBox="0 0 152 153" fill="none" xmlns="http://www.w3.org/2000/svg">
<path d="M38.7641 102.275C43.9633 109.177 51.0923 114.625 59.1309 117.801C62.4611 119.118 64.7381 122.349 64.4183 125.916C64.1978 128.397 63.2605 130.851 61.7719 132.703C58.8277 136.37 53.4245 137.831 49.0357 136.149C48.2528 140.753 45.055 145.704 40.9474 147.926C36.8399 150.148 31.5525 150.159 27.5717 147.717C23.591 145.274 21.1926 140.373 21.9645 135.769C16.7322 137.202 12.1781 138.443 5.96988 133.58C5.13734 132.93 4.35443 132.185 3.75346 131.314C1.85682 128.552 1.23379 124.863 2.47433 121.754C3.73692 118.589 7.05052 116.246 10.4523 116.472C9.03538 112.761 10.116 108.229 13.1429 105.66C16.1698 103.091 20.8453 102.683 24.2747 104.689C24.5283 103.664 24.9969 102.727 25.6255 101.889C28.9005 97.5274 35.4891 97.9189 38.7696 102.275H38.7641Z" fill="#00112C" stroke="#00112C" stroke-linecap="round" stroke-linejoin="round"/>
<path d="M93.403 106.338C102.032 105.93 110.55 103.107 117.706 98.2603C120.673 96.2534 124.626 96.1873 127.388 98.4643C129.312 100.047 130.812 102.197 131.507 104.474C132.874 108.973 131.044 114.255 127.179 116.94C130.542 120.176 132.83 125.613 132.35 130.261C131.871 134.903 128.904 139.281 124.642 141.194C120.381 143.102 114.977 142.33 111.609 139.093C109.85 144.221 108.306 148.687 100.791 151.074C99.7821 151.394 98.7291 151.625 97.6705 151.631C94.3183 151.642 90.922 150.082 89.0474 147.303C87.1397 144.474 87.0736 140.422 89.1742 137.737C85.3093 136.822 82.1776 133.37 81.7586 129.423C81.3451 125.475 83.6387 121.384 87.2279 119.68C86.5222 118.897 86.015 117.977 85.6731 116.984C83.9143 111.824 87.9502 106.597 93.3975 106.338H93.403Z" fill="#00112C" stroke="#00112C" stroke-linecap="round" stroke-linejoin="round"/>
<path d="M50.0009 113.378C48.2311 110.704 47.9499 107.263 48.5398 104.115C49.1904 100.664 51.4454 97.5981 51.8038 94.1853C52.1677 90.6952 51.4179 87.3541 48.7218 84.8895C46.4061 82.7724 43.0539 81.8516 39.9774 82.4746C43.5281 80.2637 45.2483 75.2961 44.6308 71.161C44.0078 67.0259 40.7658 63.4035 36.7189 62.3339C38.2021 60.3325 38.985 57.7025 39.0566 55.216C39.1724 50.9871 37.3805 46.5653 33.8464 44.2441C30.3123 41.923 25.0303 42.2593 22.3232 45.5122C19.8146 41.5811 14.0089 39.3151 9.58707 40.8037C5.17076 42.2979 2.02808 46.852 2.06667 51.5164C2.10527 56.1808 5.23141 60.6302 9.55399 62.378C4.63596 63.6406 0.241708 68.9611 0.511869 74.028C0.78203 79.0949 4.96676 83.6821 9.98955 84.4154C8.62772 88.8868 10.8772 95.2384 14.9793 97.4823C19.0813 99.7263 24.6885 98.6953 27.7264 95.1391C26.9711 99.5279 29.9373 104.325 33.9346 106.282C37.9319 108.245 42.7562 107.958 46.9244 106.387" fill="#85DFA9"/>
<path d="M50.0009 113.378C48.2311 110.704 47.9499 107.263 48.5398 104.115C49.1904 100.664 51.4454 97.5981 51.8038 94.1853C52.1677 90.6952 51.4179 87.3541 48.7218 84.8895C46.4061 82.7724 43.0539 81.8516 39.9774 82.4746C43.5281 80.2637 45.2483 75.2961 44.6308 71.161C44.0078 67.0259 40.7658 63.4035 36.7189 62.3339C38.2021 60.3325 38.985 57.7025 39.0566 55.216C39.1724 50.9871 37.3805 46.5653 33.8464 44.2441C30.3123 41.923 25.0303 42.2593 22.3232 45.5122C19.8146 41.5811 14.0089 39.3151 9.58707 40.8037C5.17076 42.2979 2.02808 46.852 2.06667 51.5164C2.10527 56.1808 5.23141 60.6302 9.55399 62.378C4.63596 63.6406 0.241708 68.9611 0.511869 74.028C0.78203 79.0949 4.96676 83.6821 9.98955 84.4154C8.62772 88.8868 10.8772 95.2384 14.9793 97.4823C19.0813 99.7263 24.6885 98.6953 27.7264 95.1391C26.9711 99.5279 29.9373 104.325 33.9346 106.282C37.9319 108.245 42.7562 107.958 46.9244 106.387" stroke="#00112C" stroke-linecap="round" stroke-linejoin="round"/>
<path d="M19.4274 60.1836C18.7988 68.0183 21.1145 76.0569 25.812 82.3588C30.2558 88.3134 36.5633 92.5698 41.8342 97.8076C46.1071 102.053 47.1106 104.997 46.9286 106.392" fill="#85DFA9"/>
<path d="M19.4274 60.1836C18.7988 68.0183 21.1145 76.0569 25.812 82.3588C30.2558 88.3134 36.5633 92.5698 41.8342 97.8076C46.1071 102.053 47.1106 104.997 46.9286 106.392" stroke="#00112C" stroke-linecap="round" stroke-linejoin="round"/>
<path d="M94.9246 106.172C97.8412 103.145 102.076 101.425 106.277 101.563C110.131 101.684 113.891 103.277 117.728 102.886C122.795 102.373 127.201 97.9955 127.746 92.9286C130.9 94.8142 136.182 94.9245 138.922 92.4765C141.662 90.0285 142.567 85.7445 141.045 82.4034C139.529 79.0567 135.708 76.9175 132.063 77.3696C135.675 76.333 139.617 73.4384 141.188 70.0311C142.765 66.6238 142.539 62.3619 140.35 59.3129C138.161 56.2639 133.988 54.6871 130.404 55.8173C130.999 52.8566 129.031 49.3555 126.44 47.8118C123.843 46.2735 120.469 46.3066 117.745 47.6188C115.027 48.9255 112.954 51.3955 111.807 54.1909C110.66 56.9862 110.39 60.0793 110.671 63.0896C107.754 61.9263 103.939 62.3012 101.37 64.1151C98.8061 65.9291 97.2458 69.0883 97.3726 72.2255C97.4939 75.3682 99.2968 78.3896 101.998 79.9995C96.292 79.801 91.0431 84.4654 89.3725 89.9238C87.7019 95.3821 89.0417 101.414 91.7819 106.42C94.5221 111.426 92.008 109.204 94.9246 106.178V106.172Z" fill="#0ABE53" stroke="#00112C" stroke-linecap="round" stroke-linejoin="round"/>
<path d="M120.451 72.2037C112.815 80.1872 107.263 90.139 104.484 100.83" stroke="#00112C" stroke-linecap="round" stroke-linejoin="round"/>
<path d="M62.2127 77.4633C67.6215 80.0602 68.669 77.2097 74.0778 79.8065C69.9592 93.3973 69.8489 100.482 58.833 109.453C56.7544 111.145 54.5214 111.04 49.2175 107.848C39.3263 101.894 45.8212 78.759 49.2175 72.209C52.9225 65.0525 60.884 62.406 72.6002 62.1248C80.5616 61.9318 79.8008 64.7051 86.2185 63.1613C98.6183 60.1841 130.762 75.0319 132.058 77.3696C134.026 80.9203 136.32 90.5193 130.155 95.746C123.991 100.973 96.639 87.5585 96.6941 88.2312C98.5466 110.291 81.6753 112.672 81.3886 126.715C70.0033 128.325 60.5918 121.648 49.3498 119.239L53.7936 108.223" fill="#08903F"/>
<path d="M62.2127 77.4633C67.6215 80.0602 68.669 77.2097 74.0778 79.8065C69.9592 93.3973 69.8489 100.482 58.833 109.453C56.7544 111.145 54.5214 111.04 49.2175 107.848C39.3263 101.894 45.8212 78.759 49.2175 72.209C52.9225 65.0525 60.884 62.406 72.6002 62.1248C80.5616 61.9318 79.8008 64.7051 86.2185 63.1613C98.6183 60.1841 130.762 75.0319 132.058 77.3696C134.026 80.9203 136.32 90.5193 130.155 95.746C123.991 100.973 96.639 87.5585 96.6941 88.2312C98.5466 110.291 81.6753 112.672 81.3886 126.715C70.0033 128.325 60.5918 121.648 49.3498 119.239L53.7936 108.223" stroke="#00112C" stroke-linecap="round" stroke-linejoin="round"/>
<path d="M115.827 77.6229C115.827 77.6229 113.5 81.4272 113.913 84.3328" stroke="#00112C" stroke-linecap="round" stroke-linejoin="round"/>
<path d="M71.6584 89.2071L68.3393 103.178L65.0201 103.294C65.0201 103.294 68.3393 98.8061 71.6584 89.2071Z" fill="#00112C" stroke="#00112C" stroke-linecap="round" stroke-linejoin="round"/>
<path d="M79.9333 45.6446L76.2668 59.2794C76.2668 59.2794 62.5603 79.2824 85.5625 74.028C93.5736 72.1975 87.6687 64.9749 87.9774 60.0734C88.3358 54.3724 89.5543 51.6819 89.5543 51.6819L79.9388 45.6446H79.9333Z" fill="#EF9B75" stroke="#00112C" stroke-linecap="round" stroke-linejoin="round"/>
<path d="M103.321 24.6606C103.321 24.6606 109.226 45.5291 100.575 52.8565C91.9245 60.184 79.5026 55.7952 75.7479 40.9474C73.6032 32.4732 89.063 14.3559 103.321 24.6606Z" fill="#EF9B75" stroke="#00112C" stroke-linecap="round" stroke-linejoin="round"/>
<path d="M93.3921 48.1532C94.572 48.2249 95.7188 48.6274 96.7498 49.2063C96.6561 50.2208 96.0992 51.2187 95.2005 51.6984C94.153 52.1836 91.9035 52.2553 90.7125 51.0754C90.2384 50.6067 89.6374 49.5316 89.9296 48.9362C90.1391 48.5116 91.9696 48.065 93.3921 48.1477V48.1532Z" fill="#D36244"/>
<path d="M88.6393 48.3081C91.3795 50.2047 95.1673 50.4529 98.128 48.9256" stroke="#00112C" stroke-linecap="round" stroke-linejoin="round"/>
<path d="M91.2852 12.1618C96.0598 12.3768 100.757 13.6229 105.229 15.31C105.708 15.4919 106.287 15.9054 106.089 16.3741C104.104 15.6187 101.932 14.8579 99.9027 15.4809C104.258 15.6628 108.316 18.9103 109.447 23.1226C109.54 23.4644 109.612 23.8338 109.496 24.1702C109.397 24.4513 109.182 24.6719 108.967 24.8814C106.535 27.186 103.382 28.6581 100.107 29.3804C96.8317 30.1027 93.4299 30.1027 90.0997 29.7333L87.7014 25.3611C86.3451 25.3059 86.3065 29.4521 86.1466 30.3949C85.4188 34.7616 84.5477 39.1779 83.0315 43.3516C82.4305 45.0111 81.7358 46.792 80.5724 48.1483C80.0487 48.7603 79.4146 49.3613 78.571 49.433C77.8984 49.4881 77.2754 49.2731 76.5697 49.3668C75.5827 49.4991 74.5958 49.7693 73.6199 49.9733C73.3388 50.0284 73.0355 50.0891 72.7709 49.9733C72.5117 49.8685 72.3408 49.6259 72.1864 49.3944C70.4497 46.7534 69.4573 43.6217 69.3635 40.4625C68.7736 42.2489 68.4979 44.1345 68.553 46.0146C68.5806 46.9188 68.6743 47.8781 68.2663 48.6831C67.4228 47.6907 67.0975 46.3675 66.888 45.0773C65.9727 39.437 66.2649 31.8008 67.8308 26.3094C69.1816 21.5678 71.7729 11.2631 91.2907 12.1508L91.2852 12.1618Z" fill="#00112C" stroke="#00112C" stroke-linecap="round" stroke-linejoin="round"/>
<path d="M106.083 47.6742C106.177 48.0546 106.977 51.3296 109.364 52.7245C110.825 53.5791 113.648 72.4297 116.581 79.7682C118.208 83.8261 128.854 83.2692 132.057 77.3698C132.068 77.3533 118.99 52.8403 118.737 50.3923C118.483 47.9443 117.992 34.6844 117.992 34.6844C117.992 34.6844 104.347 40.843 106.078 47.6686L106.083 47.6742Z" fill="#EF9B75" stroke="#00112C" stroke-linecap="round" stroke-linejoin="round"/>
<path d="M102.892 32.738C98.8838 32.738 95.6364 35.9855 95.6364 39.9938C95.6364 44.0021 98.8838 47.2495 102.892 47.2495H120.238V32.738H102.892Z" fill="#00112C" stroke="#00112C" stroke-linecap="round" stroke-linejoin="round"/>
<path d="M120.235 47.2495C124.243 47.2495 127.491 44.001 127.491 39.9938C127.491 35.9865 124.243 32.738 120.235 32.738C116.228 32.738 112.98 35.9865 112.98 39.9938C112.98 44.001 116.228 47.2495 120.235 47.2495Z" fill="#F3F6F9" stroke="#00112C" stroke-linecap="round" stroke-linejoin="round"/>
<path d="M105.008 30.7144C105.008 30.7144 99.8365 30.8798 100.244 32.3078C100.652 33.7357 108.57 32.6882 108.57 32.6882C108.57 32.6882 108.57 30.9294 105.008 30.7144Z" fill="#EF9B75" stroke="#00112C" stroke-linecap="round" stroke-linejoin="round"/>
<path d="M107.677 30.7144C107.677 30.7144 102.505 30.8798 102.913 32.3078C103.321 33.7357 111.238 32.6882 111.238 32.6882C111.238 32.6882 111.238 30.9294 107.677 30.7144Z" fill="#EF9B75" stroke="#00112C" stroke-linecap="round" stroke-linejoin="round"/>
<path d="M110.351 30.7144C110.351 30.7144 105.179 30.8798 105.587 32.3078C105.995 33.7357 113.913 32.6882 113.913 32.6882C113.913 32.6882 113.913 30.9294 110.351 30.7144Z" fill="#EF9B75" stroke="#00112C" stroke-linecap="round" stroke-linejoin="round"/>
<path d="M113.02 30.7144C113.02 30.7144 107.848 30.8798 108.256 32.3078C108.664 33.7357 116.581 32.6882 116.581 32.6882C116.581 32.6882 116.581 30.9294 113.02 30.7144Z" fill="#EF9B75" stroke="#00112C" stroke-linecap="round" stroke-linejoin="round"/>
<path d="M85.546 32.738C81.5377 32.738 78.2903 35.9855 78.2903 39.9938C78.2903 44.0021 81.5377 47.2495 85.546 47.2495H102.891V32.738H85.546Z" fill="#00112C" stroke="#00112C" stroke-linecap="round" stroke-linejoin="round"/>
<path d="M102.892 47.2495C106.899 47.2495 110.148 44.001 110.148 39.9938C110.148 35.9865 106.899 32.738 102.892 32.738C98.8849 32.738 95.6364 35.9865 95.6364 39.9938C95.6364 44.001 98.8849 47.2495 102.892 47.2495Z" fill="#F3F6F9" stroke="#00112C" stroke-linecap="round" stroke-linejoin="round"/>
<path d="M87.1844 51.7097C87.1844 51.7097 90.4429 48.5009 89.1693 45.055C87.8957 41.609 86.3023 38.3009 86.6606 36.7572C87.019 35.2134 89.9908 32.6717 89.9908 32.6717C89.9908 32.6717 89.2024 30.5214 86.7103 31.7454C86.7103 31.7454 85.7123 29.6227 83.0989 31.3374C83.0989 31.3374 81.3677 29.4849 79.7026 31.15C79.7026 31.15 78.0375 29.0107 76.378 31.2713C74.7129 33.5263 73.1691 33.8846 74.4758 38.0418C75.7825 42.199 78.8701 45.6449 78.1588 47.7841C77.4476 49.9234 59.0601 76.8568 59.0601 76.8568L70.1036 82.7562C72.0664 84.0077 74.6798 83.1532 75.5179 80.9808C78.5172 73.2068 83.347 56.0213 84.764 54.2018C85.8557 52.8014 87.1844 51.7097 87.1844 51.7097Z" fill="#EF9B75" stroke="#00112C" stroke-linecap="round" stroke-linejoin="round"/>
<path d="M86.7103 31.7506C86.7103 31.7506 83.5015 34.4853 82.7902 35.6707L86.7103 31.7506Z" fill="#EF9B75"/>
<path d="M86.7103 31.7506C86.7103 31.7506 83.5015 34.4853 82.7902 35.6707" stroke="#00112C" stroke-linecap="round" stroke-linejoin="round"/>
<path d="M79.6972 31.1558C79.6972 31.1558 77.4366 33.5321 77.0838 34.3647L79.6972 31.1558Z" fill="#EF9B75"/>
<path d="M79.6972 31.1558C79.6972 31.1558 77.4366 33.5321 77.0838 34.3647" stroke="#00112C" stroke-linecap="round" stroke-linejoin="round"/>
<path d="M83.0931 31.3425L79.6968 34.8381" stroke="#00112C" stroke-linecap="round" stroke-linejoin="round"/>
<path d="M102.893 35.478C105.385 35.478 107.409 37.5015 107.409 39.9936" stroke="#00112C" stroke-linecap="round" stroke-linejoin="round"/>
<path d="M120.238 35.478C122.73 35.478 124.754 37.5015 124.754 39.9936" stroke="#00112C" stroke-linecap="round" stroke-linejoin="round"/>
<path d="M84.7649 54.2079C84.7649 54.2079 86.5568 55.6139 88.4424 55.9447L88.3101 56.7938L84.0096 55.7517C84.0096 55.7517 84.4286 54.6325 84.7704 54.2079H84.7649Z" fill="#00112C" stroke="#00112C" stroke-linecap="round" stroke-linejoin="round"/>
<path d="M71.0522 90.5189C71.7083 88.3797 73.5388 87.2715 74.228 86.2018C74.9172 85.1322 74.228 84.0571 74.228 84.0571C74.228 84.0571 77.288 83.2521 76.1026 82.1605C75.044 81.1846 62.9088 75.4009 60.3285 74.1769C60.0528 74.0446 59.722 74.1383 59.5511 74.392L53.9163 82.8221" fill="#08903F"/>
<path d="M71.0522 90.5189C71.7083 88.3797 73.5388 87.2715 74.228 86.2018C74.9172 85.1322 74.228 84.0571 74.228 84.0571C74.228 84.0571 77.288 83.2521 76.1026 82.1605C75.044 81.1846 62.9088 75.4009 60.3285 74.1769C60.0528 74.0446 59.722 74.1383 59.5511 74.392L53.9163 82.8221" stroke="#00112C" stroke-linecap="round" stroke-linejoin="round"/>
<path d="M85.0896 119.895C85.7237 115.578 87.3942 111.509 89.9139 108.03C87.0193 107.203 83.7057 107.66 80.4748 109.987C79.3611 110.786 78.3907 111.779 77.5858 112.898C75.7332 115.473 74.7518 118.345 74.3163 121.312L85.0896 119.895Z" fill="#0ABE53" stroke="#00112C" stroke-linecap="round" stroke-linejoin="round"/>
<path d="M147.161 113.229C144.09 110.792 140.037 109.855 136.117 109.872C132.197 109.888 128.338 110.781 124.517 111.675C126.623 107.97 124.351 101.872 120.883 99.396C117.415 96.915 112.85 96.529 108.616 96.9977C106.625 97.2182 104.315 97.8908 101.867 98.8281C96.9328 100.714 92.8528 103.972 89.9141 108.025C94.0823 109.21 97.3628 113.053 98.245 117.778C98.9728 121.682 98.5317 125.701 98.7357 129.671C98.9397 133.64 99.9541 137.847 102.909 140.499C105.925 143.206 110.733 143.669 114.212 141.591C117.691 139.507 119.549 135.046 118.584 131.115C119.428 135.145 122.074 140.185 125.046 143.035C128.238 146.101 132.6 148.119 137.021 147.849C141.438 147.578 145.771 144.733 147.166 140.527C148.561 136.32 146.405 131.077 142.232 129.604C146.052 130.481 150.403 127.416 151.274 123.589C152.139 119.763 150.243 115.655 147.166 113.218L147.161 113.229Z" fill="#85DFA9" stroke="#00112C" stroke-linecap="round" stroke-linejoin="round"/>
<path d="M89.9141 108.03C98.2174 106.508 107.111 107.693 114.405 111.944C121.699 116.195 127.395 123.115 130.163 131.093" stroke="#00112C" stroke-linecap="round" stroke-linejoin="round"/>
<path d="M62.8434 117.1H69.1563C69.4265 115.556 69.5919 114.001 69.5588 112.436C69.4871 108.879 68.2797 105.185 65.5781 102.87C62.8765 100.554 58.5043 100.058 55.7751 102.34C55.4994 102.572 55.2513 102.826 55.0197 103.096C56.9164 104.832 58.4988 106.966 59.7228 109.232C61.068 111.724 62.0274 114.382 62.8379 117.1H62.8434Z" fill="#0ABE53" stroke="#00112C" stroke-linecap="round" stroke-linejoin="round"/>
<path d="M49.262 99.5943C45.0717 98.1607 40.3026 98.7397 36.4321 100.895C32.5671 103.046 29.6064 106.696 28.0295 110.831C24.0929 109.066 17.6917 110.18 14.7972 113.372C11.8971 116.565 11.3347 121.659 13.4739 125.403C8.83709 125.827 4.52554 130.382 4.52554 135.035C4.52554 139.688 8.23612 144.016 12.8013 144.921C17.3665 145.825 22.3396 143.36 24.5616 139.269C27.3734 139.887 30.1908 141.067 33.0082 140.499C35.8256 139.931 38.5438 138.382 40.0269 135.917C41.51 133.453 41.5265 130.04 39.6685 127.845C42.0503 129.152 45.3088 129.781 47.8395 128.794C50.3702 127.807 52.4212 125.662 53.2923 123.093C54.4502 119.674 53.5515 115.958 53.1269 112.375C52.7465 109.149 52.9505 105.488 55.007 103.101C53.3309 101.563 51.4067 100.333 49.2509 99.5998L49.262 99.5943Z" fill="#08903F" stroke="#00112C" stroke-linecap="round" stroke-linejoin="round"/>
<path d="M54.6265 103.294C41.2728 104.595 29.1046 114.277 24.8978 126.947" stroke="#00112C" stroke-linecap="round" stroke-linejoin="round"/>
<path d="M61.9393 99.7544C70.2426 102.142 79.2131 102.213 87.5494 99.9253C91.0009 98.977 94.7666 100.19 96.6522 103.233C97.9644 105.351 98.6922 107.87 98.615 110.247C98.4662 114.95 95.0257 119.36 90.5047 120.656C92.6439 124.802 93.0629 130.691 91.1167 134.93C89.1704 139.176 84.9471 142.363 80.2992 142.798C75.6513 143.234 70.7829 140.764 68.6382 136.618C65.3191 140.907 62.4245 144.634 54.5402 144.48C53.4816 144.458 52.412 144.336 51.4085 144C48.2328 142.931 45.5146 140.361 44.638 137.13C43.7448 133.839 44.9853 129.979 47.8358 128.116C44.4726 126.004 42.6145 121.731 43.4912 117.861C44.3678 113.99 47.8579 110.853 51.8055 110.395C51.392 109.425 51.2045 108.394 51.2045 107.346C51.2045 101.894 56.707 98.2492 61.9448 99.7544H61.9393Z" fill="#0ABE53" stroke="#00112C" stroke-linecap="round" stroke-linejoin="round"/>
<path d="M74.3172 101.59C68.9305 107.307 65.9643 115.6 65.661 123.451" stroke="#00112C" stroke-linecap="round" stroke-linejoin="round"/>
<path d="M96.7007 88.2367L96.1604 84.8514C96.1604 84.8514 98.4264 88.8211 102.203 90.2988L96.7007 88.2367Z" fill="#00112C" stroke="#00112C" stroke-linecap="round" stroke-linejoin="round"/>
<path d="M78.3416 14.6811C78.518 12.9334 78.1927 11.1746 77.7792 9.46538C77.101 6.67555 76.048 3.78097 73.7819 2.01666C73.2967 1.63622 72.7344 1.31093 72.1224 1.27233C71.5104 1.23374 70.8377 1.55352 70.6392 2.13795C71.8467 2.34746 72.8171 3.5053 72.806 4.7348C70.1265 3.27373 67.4138 1.81266 64.4641 1.03525C61.5144 0.263366 58.2615 0.230285 55.5268 1.57558C52.7921 2.92087 50.719 5.83199 50.934 8.87543C51.0774 10.8989 52.1911 12.7735 53.7018 14.1243C55.218 15.4751 57.1036 16.3462 59.0389 16.9472C55.7969 16.6053 52.6267 15.5853 49.7927 13.9754C49.4288 14.3393 49.4454 14.9568 49.699 15.4034C49.9526 15.85 50.3882 16.1587 50.8238 16.4234C52.9575 17.7246 55.4551 18.4248 57.9582 18.4193C55.5654 18.8273 53.0898 18.7391 50.7355 18.1546C50.5095 18.717 50.7411 19.3786 51.1546 19.8197C51.5681 20.2608 52.136 20.5199 52.6928 20.7515C58.1126 22.99 64.2712 23.398 69.939 21.8928C73.7599 20.8783 77.906 19.0533 78.3416 14.6866V14.6811Z" fill="#00112C" stroke="#00112C" stroke-linecap="round" stroke-linejoin="round"/>
</svg>
