<svg xmlns="http://www.w3.org/2000/svg" fill="none" viewBox="0 0 16 16"><path fill="currentColor" fill-rule="evenodd" d="M16 8q0 2.16-1.08 4A8.1 8.1 0 0 1 8 16a8.1 8.1 0 0 1-8-8q0-2.16 1.08-4A8.1 8.1 0 0 1 8 0q2.16 0 4 1.08A8.1 8.1 0 0 1 16 8m-7.98 2q-.63 0-1.06.44-.45.45-.44 1.06 0 .62.44 1.06.43.45 1.06.44.6 0 1.06-.44.44-.45.44-1.06t-.44-1.06T8.02 10M6.58 3.42l.26 4.39q0 .12.11.24.12.1.28.11h1.54q.16 0 .28-.11a.3.3 0 0 0 .11-.24l.26-4.4a.4.4 0 0 0-.11-.3.4.4 0 0 0-.28-.11H6.97q-.16 0-.28.11a.4.4 0 0 0-.1.3" clip-rule="evenodd"/></svg>